<svg width="204" height="34" viewBox="0 0 204 34" fill="none" xmlns="http://www.w3.org/2000/svg">
<path d="M84.8 25.288C83.4133 25.288 82.1653 25.0427 81.056 24.552C79.968 24.04 79.104 23.3573 78.464 22.504C77.824 21.6293 77.4827 20.6587 77.44 19.592H81.216C81.28 20.3387 81.632 20.968 82.272 21.48C82.9333 21.9707 83.7547 22.216 84.736 22.216C85.76 22.216 86.5493 22.024 87.104 21.64C87.68 21.2347 87.968 20.7227 87.968 20.104C87.968 19.4427 87.648 18.952 87.008 18.632C86.3893 18.312 85.3973 17.96 84.032 17.576C82.7093 17.2133 81.632 16.8613 80.8 16.52C79.968 16.1787 79.2427 15.656 78.624 14.952C78.0267 14.248 77.728 13.32 77.728 12.168C77.728 11.2293 78.0053 10.376 78.56 9.608C79.1147 8.81867 79.904 8.2 80.928 7.752C81.9733 7.304 83.168 7.08 84.512 7.08C86.5173 7.08 88.128 7.592 89.344 8.616C90.5813 9.61867 91.2427 10.9947 91.328 12.744H87.68C87.616 11.9547 87.296 11.3253 86.72 10.856C86.144 10.3867 85.3653 10.152 84.384 10.152C83.424 10.152 82.688 10.3333 82.176 10.696C81.664 11.0587 81.408 11.5387 81.408 12.136C81.408 12.6053 81.5787 13 81.92 13.32C82.2613 13.64 82.6773 13.896 83.168 14.088C83.6587 14.2587 84.384 14.4827 85.344 14.76C86.624 15.1013 87.6693 15.4533 88.48 15.816C89.312 16.1573 90.0267 16.6693 90.624 17.352C91.2213 18.0347 91.5307 18.9413 91.552 20.072C91.552 21.0747 91.2747 21.9707 90.72 22.76C90.1653 23.5493 89.376 24.168 88.352 24.616C87.3493 25.064 86.1653 25.288 84.8 25.288ZM111.366 7.368L100.55 33.288H96.7738L100.358 24.712L93.4138 7.368H97.4778L102.438 20.808L107.59 7.368H111.366ZM120.519 25.288C119.132 25.288 117.884 25.0427 116.775 24.552C115.687 24.04 114.823 23.3573 114.183 22.504C113.543 21.6293 113.201 20.6587 113.159 19.592H116.935C116.999 20.3387 117.351 20.968 117.991 21.48C118.652 21.9707 119.473 22.216 120.455 22.216C121.479 22.216 122.268 22.024 122.823 21.64C123.399 21.2347 123.687 20.7227 123.687 20.104C123.687 19.4427 123.367 18.952 122.727 18.632C122.108 18.312 121.116 17.96 119.751 17.576C118.428 17.2133 117.351 16.8613 116.519 16.52C115.687 16.1787 114.961 15.656 114.343 14.952C113.745 14.248 113.447 13.32 113.447 12.168C113.447 11.2293 113.724 10.376 114.279 9.608C114.833 8.81867 115.623 8.2 116.647 7.752C117.692 7.304 118.887 7.08 120.231 7.08C122.236 7.08 123.847 7.592 125.063 8.616C126.3 9.61867 126.961 10.9947 127.047 12.744H123.399C123.335 11.9547 123.015 11.3253 122.439 10.856C121.863 10.3867 121.084 10.152 120.103 10.152C119.143 10.152 118.407 10.3333 117.895 10.696C117.383 11.0587 117.127 11.5387 117.127 12.136C117.127 12.6053 117.297 13 117.639 13.32C117.98 13.64 118.396 13.896 118.887 14.088C119.377 14.2587 120.103 14.4827 121.063 14.76C122.343 15.1013 123.388 15.4533 124.199 15.816C125.031 16.1573 125.745 16.6693 126.343 17.352C126.94 18.0347 127.249 18.9413 127.271 20.072C127.271 21.0747 126.993 21.9707 126.439 22.76C125.884 23.5493 125.095 24.168 124.071 24.616C123.068 25.064 121.884 25.288 120.519 25.288ZM135.469 10.344V20.104C135.469 20.7653 135.618 21.2453 135.917 21.544C136.237 21.8213 136.77 21.96 137.517 21.96H139.757V25H136.877C135.234 25 133.975 24.616 133.101 23.848C132.226 23.08 131.789 21.832 131.789 20.104V10.344H129.709V7.368H131.789V2.984H135.469V7.368H139.757V10.344H135.469ZM159.279 15.752C159.279 16.4133 159.236 17.0107 159.151 17.544H145.679C145.785 18.952 146.308 20.0827 147.247 20.936C148.185 21.7893 149.337 22.216 150.703 22.216C152.665 22.216 154.052 21.3947 154.863 19.752H158.799C158.265 21.3733 157.295 22.7067 155.887 23.752C154.5 24.776 152.772 25.288 150.703 25.288C149.017 25.288 147.503 24.9147 146.159 24.168C144.836 23.4 143.791 22.3333 143.023 20.968C142.276 19.5813 141.903 17.9813 141.903 16.168C141.903 14.3547 142.265 12.7653 142.991 11.4C143.737 10.0133 144.772 8.94667 146.095 8.2C147.439 7.45333 148.975 7.08 150.703 7.08C152.367 7.08 153.849 7.44267 155.151 8.168C156.452 8.89333 157.465 9.91733 158.191 11.24C158.916 12.5413 159.279 14.0453 159.279 15.752ZM155.471 14.6C155.449 13.256 154.969 12.1787 154.031 11.368C153.092 10.5573 151.929 10.152 150.543 10.152C149.284 10.152 148.207 10.5573 147.311 11.368C146.415 12.1573 145.881 13.2347 145.711 14.6H155.471ZM184.213 7.08C185.599 7.08 186.837 7.368 187.925 7.944C189.034 8.52 189.898 9.37333 190.517 10.504C191.157 11.6347 191.477 13 191.477 14.6V25H187.861V15.144C187.861 13.5653 187.466 12.36 186.677 11.528C185.887 10.6747 184.81 10.248 183.445 10.248C182.079 10.248 180.991 10.6747 180.181 11.528C179.391 12.36 178.997 13.5653 178.997 15.144V25H175.381V15.144C175.381 13.5653 174.986 12.36 174.197 11.528C173.407 10.6747 172.33 10.248 170.965 10.248C169.599 10.248 168.511 10.6747 167.701 11.528C166.911 12.36 166.517 13.5653 166.517 15.144V25H162.869V7.368H166.517V9.384C167.114 8.65867 167.871 8.09333 168.789 7.688C169.706 7.28267 170.687 7.08 171.733 7.08C173.141 7.08 174.399 7.37867 175.509 7.976C176.618 8.57333 177.471 9.43733 178.069 10.568C178.602 9.50133 179.434 8.65867 180.565 8.04C181.695 7.4 182.911 7.08 184.213 7.08Z" fill="#00875F"/>
<path d="M81.056 24.552L80.843 25.0045L80.8537 25.0093L81.056 24.552ZM78.464 22.504L78.0605 22.7993L78.064 22.804L78.464 22.504ZM77.44 19.592V19.092H76.9196L76.9404 19.612L77.44 19.592ZM81.216 19.592L81.7142 19.5493L81.675 19.092H81.216V19.592ZM82.272 21.48L81.9597 21.8704L81.9668 21.8761L81.9741 21.8815L82.272 21.48ZM87.104 21.64L87.3886 22.0511L87.3917 22.0489L87.104 21.64ZM87.008 18.632L86.7783 19.0761L86.7844 19.0792L87.008 18.632ZM84.032 17.576L84.1674 17.0947L84.1642 17.0938L84.032 17.576ZM80.8 16.52L80.6102 16.9826L80.8 16.52ZM78.624 14.952L78.2427 15.2755L78.2484 15.2821L78.624 14.952ZM78.56 9.608L78.9654 9.90077L78.9691 9.89547L78.56 9.608ZM80.928 7.752L80.731 7.29241L80.7276 7.29392L80.928 7.752ZM89.344 8.616L89.0219 8.99852L89.0292 9.00447L89.344 8.616ZM91.328 12.744V13.244H91.853L91.8274 12.7196L91.328 12.744ZM87.68 12.744L87.1816 12.7844L87.2189 13.244H87.68V12.744ZM86.72 10.856L87.0358 10.4684L86.72 10.856ZM82.176 10.696L81.887 10.288H81.887L82.176 10.696ZM81.92 13.32L81.578 13.6848L81.578 13.6848L81.92 13.32ZM83.168 14.088L82.9858 14.5536L82.9947 14.5571L83.0037 14.5602L83.168 14.088ZM85.344 14.76L85.2052 15.2405L85.2152 15.2431L85.344 14.76ZM88.48 15.816L88.2758 16.2724L88.283 16.2756L88.2902 16.2786L88.48 15.816ZM90.624 17.352L90.2477 17.6813L90.624 17.352ZM91.552 20.072H92.0521L92.0519 20.0626L91.552 20.072ZM90.72 22.76L90.3109 22.4725L90.72 22.76ZM88.352 24.616L88.1516 24.1579L88.148 24.1595L88.352 24.616ZM84.8 24.788C83.4731 24.788 82.2954 24.5535 81.2583 24.0947L80.8537 25.0093C82.0353 25.5319 83.3536 25.788 84.8 25.788V24.788ZM81.2689 24.0996C80.2452 23.6179 79.4491 22.9841 78.864 22.204L78.064 22.804C78.7589 23.7306 79.6908 24.4621 80.8431 25.0044L81.2689 24.0996ZM78.8675 22.2087C78.2852 21.4129 77.9782 20.5378 77.9396 19.572L76.9404 19.612C76.9871 20.7795 77.3628 21.8457 78.0605 22.7993L78.8675 22.2087ZM77.44 20.092H81.216V19.092H77.44V20.092ZM80.7178 19.6347C80.7947 20.5314 81.2238 21.2818 81.9597 21.8704L82.5843 21.0896C82.0402 20.6542 81.7653 20.1459 81.7142 19.5493L80.7178 19.6347ZM81.9741 21.8815C82.7372 22.4477 83.6685 22.716 84.736 22.716V21.716C83.8408 21.716 83.1295 21.4936 82.5699 21.0785L81.9741 21.8815ZM84.736 22.716C85.8123 22.716 86.7173 22.5159 87.3886 22.0511L86.8194 21.2289C86.3814 21.5321 85.7077 21.716 84.736 21.716V22.716ZM87.3917 22.0489C88.0795 21.5649 88.468 20.9098 88.468 20.104H87.468C87.468 20.5355 87.2805 20.9044 86.8163 21.2311L87.3917 22.0489ZM88.468 20.104C88.468 19.6892 88.3664 19.3036 88.1468 18.9669C87.9287 18.6324 87.6134 18.3757 87.2316 18.1848L86.7844 19.0792C87.0426 19.2083 87.2073 19.357 87.3092 19.5131C87.4096 19.6671 87.468 19.8574 87.468 20.104H88.468ZM87.2377 18.1879C86.5718 17.8434 85.5391 17.4805 84.1674 17.0947L83.8966 18.0573C85.2556 18.4395 86.2069 18.7806 86.7783 19.0761L87.2377 18.1879ZM84.1642 17.0938C82.8521 16.734 81.796 16.3882 80.9898 16.0574L80.6102 16.9826C81.468 17.3345 82.5666 17.6926 83.8998 18.0582L84.1642 17.0938ZM80.9898 16.0574C80.2321 15.7466 79.5696 15.2705 78.9996 14.6219L78.2484 15.2821C78.9158 16.0415 79.7039 16.6107 80.6102 16.9826L80.9898 16.0574ZM79.0053 14.6285C78.5021 14.0355 78.228 13.2318 78.228 12.168H77.228C77.228 13.4082 77.5512 14.4605 78.2427 15.2755L79.0053 14.6285ZM78.228 12.168C78.228 11.3355 78.4716 10.5844 78.9653 9.90074L78.1547 9.31525C77.5391 10.1676 77.228 11.1232 77.228 12.168H78.228ZM78.9691 9.89547C79.4632 9.19226 80.1748 8.6273 81.1284 8.21008L80.7276 7.29392C79.6332 7.7727 78.7661 8.44508 78.1509 9.32053L78.9691 9.89547ZM81.125 8.21157C82.0978 7.79464 83.2236 7.58 84.512 7.58V6.58C83.1124 6.58 81.8489 6.81336 80.731 7.29243L81.125 8.21157ZM84.512 7.58C86.4311 7.58 87.9176 8.06853 89.0219 8.99846L89.6661 8.23354C88.3384 7.11547 86.6035 6.58 84.512 6.58V7.58ZM89.0292 9.00447C90.1442 9.90803 90.7494 11.1453 90.8286 12.7684L91.8274 12.7196C91.7359 10.8441 91.0184 9.32931 89.6588 8.22753L89.0292 9.00447ZM91.328 12.244H87.68V13.244H91.328V12.244ZM88.1784 12.7036C88.1042 11.7885 87.7249 11.0299 87.0358 10.4684L86.4042 11.2436C86.8671 11.6208 87.1278 12.1209 87.1816 12.7844L88.1784 12.7036ZM87.0358 10.4684C86.3455 9.90592 85.4432 9.652 84.384 9.652V10.652C85.2874 10.652 85.9425 10.8674 86.4042 11.2436L87.0358 10.4684ZM84.384 9.652C83.3719 9.652 82.5175 9.84138 81.887 10.288L82.465 11.104C82.8585 10.8253 83.4761 10.652 84.384 10.652V9.652ZM81.887 10.288C81.2505 10.7388 80.908 11.3671 80.908 12.136H81.908C81.908 11.7103 82.0775 11.3785 82.465 11.104L81.887 10.288ZM80.908 12.136C80.908 12.743 81.1355 13.2699 81.578 13.6848L82.262 12.9552C82.0218 12.7301 81.908 12.4676 81.908 12.136H80.908ZM81.578 13.6848C81.9712 14.0534 82.4434 14.3414 82.9858 14.5536L83.3502 13.6224C82.9113 13.4506 82.5515 13.2266 82.262 12.9552L81.578 13.6848ZM83.0037 14.5602C83.5073 14.7354 84.2429 14.9624 85.2052 15.2404L85.4828 14.2796C84.5251 14.003 83.81 13.7819 83.3323 13.6158L83.0037 14.5602ZM85.2152 15.2431C86.4806 15.5806 87.4982 15.9245 88.2758 16.2724L88.6842 15.3596C87.8404 14.9821 86.7674 14.6221 85.4728 14.2769L85.2152 15.2431ZM88.2902 16.2786C89.0499 16.5903 89.7009 17.0563 90.2477 17.6813L91.0003 17.0227C90.3524 16.2823 89.5741 15.7244 88.6698 15.3534L88.2902 16.2786ZM90.2477 17.6813C90.7497 18.255 91.0324 19.0386 91.0521 20.0814L92.0519 20.0626C92.0289 18.844 91.6929 17.8143 91.0003 17.0227L90.2477 17.6813ZM91.052 20.072C91.052 20.9761 90.804 21.7708 90.3109 22.4725L91.1291 23.0475C91.7453 22.1705 92.052 21.1733 92.052 20.072H91.052ZM90.3109 22.4725C89.8168 23.1757 89.1052 23.7407 88.1516 24.1579L88.5524 25.0741C89.6468 24.5953 90.5139 23.9229 91.1291 23.0475L90.3109 22.4725ZM88.148 24.1595C87.2231 24.5727 86.1117 24.788 84.8 24.788V25.788C86.219 25.788 87.4755 25.5553 88.556 25.0725L88.148 24.1595ZM111.366 7.368L111.827 7.56055L112.116 6.868H111.366V7.368ZM100.55 33.288V33.788H100.883L101.011 33.4805L100.55 33.288ZM96.7738 33.288L96.3124 33.0952L96.0229 33.788H96.7738V33.288ZM100.358 24.712L100.819 24.9048L100.898 24.7161L100.822 24.5262L100.358 24.712ZM93.4137 7.368V6.868H92.675L92.9496 7.55384L93.4137 7.368ZM97.4778 7.368L97.9468 7.19489L97.8262 6.868H97.4778V7.368ZM102.438 20.808L101.969 20.9811L102.429 22.2281L102.905 20.987L102.438 20.808ZM107.59 7.368V6.868H107.246L107.123 7.18903L107.59 7.368ZM110.904 7.17545L100.088 33.0955L101.011 33.4805L111.827 7.56055L110.904 7.17545ZM100.55 32.788H96.7738V33.788H100.55V32.788ZM97.2351 33.4808L100.819 24.9048L99.8964 24.5192L96.3124 33.0952L97.2351 33.4808ZM100.822 24.5262L93.8779 7.18216L92.9496 7.55384L99.8936 24.8978L100.822 24.5262ZM93.4137 7.868H97.4778V6.868H93.4137V7.868ZM97.0087 7.54111L101.969 20.9811L102.907 20.6349L97.9468 7.19489L97.0087 7.54111ZM102.905 20.987L108.057 7.54697L107.123 7.18903L101.971 20.629L102.905 20.987ZM107.59 7.868H111.366V6.868H107.59V7.868ZM116.775 24.552L116.562 25.0045L116.572 25.0093L116.775 24.552ZM114.183 22.504L113.779 22.7993L113.783 22.804L114.183 22.504ZM113.159 19.592V19.092H112.638L112.659 19.612L113.159 19.592ZM116.935 19.592L117.433 19.5493L117.394 19.092H116.935V19.592ZM117.991 21.48L117.678 21.8704L117.686 21.8761L117.693 21.8815L117.991 21.48ZM122.823 21.64L123.107 22.0511L123.11 22.0489L122.823 21.64ZM122.727 18.632L122.497 19.0761L122.503 19.0792L122.727 18.632ZM119.751 17.576L119.886 17.0947L119.883 17.0938L119.751 17.576ZM116.519 16.52L116.329 16.9826L116.519 16.52ZM114.343 14.952L113.961 15.2755L113.967 15.2821L114.343 14.952ZM114.279 9.608L114.684 9.90077L114.688 9.89547L114.279 9.608ZM116.647 7.752L116.45 7.29241L116.446 7.29392L116.647 7.752ZM125.063 8.616L124.741 8.99852L124.748 9.00447L125.063 8.616ZM127.047 12.744V13.244H127.572L127.546 12.7196L127.047 12.744ZM123.399 12.744L122.9 12.7844L122.938 13.244H123.399V12.744ZM122.439 10.856L122.755 10.4684L122.439 10.856ZM117.895 10.696L117.606 10.288H117.606L117.895 10.696ZM117.639 13.32L117.297 13.6848V13.6848L117.639 13.32ZM118.887 14.088L118.705 14.5536L118.713 14.5571L118.722 14.5602L118.887 14.088ZM121.063 14.76L120.924 15.2405L120.934 15.2431L121.063 14.76ZM124.199 15.816L123.995 16.2724L124.002 16.2756L124.009 16.2786L124.199 15.816ZM126.343 17.352L125.966 17.6813L126.343 17.352ZM127.271 20.072H127.771L127.771 20.0626L127.271 20.072ZM126.439 22.76L126.03 22.4725L126.439 22.76ZM124.071 24.616L123.87 24.1579L123.867 24.1595L124.071 24.616ZM120.519 24.788C119.192 24.788 118.014 24.5535 116.977 24.0947L116.572 25.0093C117.754 25.5319 119.072 25.788 120.519 25.788V24.788ZM116.988 24.0996C115.964 23.6179 115.168 22.9841 114.583 22.204L113.783 22.804C114.478 23.7306 115.41 24.4621 116.562 25.0044L116.988 24.0996ZM114.586 22.2087C114.004 21.4129 113.697 20.5378 113.658 19.572L112.659 19.612C112.706 20.7795 113.082 21.8457 113.779 22.7993L114.586 22.2087ZM113.159 20.092H116.935V19.092H113.159V20.092ZM116.437 19.6347C116.513 20.5314 116.943 21.2818 117.678 21.8704L118.303 21.0896C117.759 20.6542 117.484 20.1459 117.433 19.5493L116.437 19.6347ZM117.693 21.8815C118.456 22.4477 119.387 22.716 120.455 22.716V21.716C119.56 21.716 118.848 21.4936 118.289 21.0785L117.693 21.8815ZM120.455 22.716C121.531 22.716 122.436 22.5159 123.107 22.0511L122.538 21.2289C122.1 21.5321 121.426 21.716 120.455 21.716V22.716ZM123.11 22.0489C123.798 21.5649 124.187 20.9098 124.187 20.104H123.187C123.187 20.5355 122.999 20.9044 122.535 21.2311L123.11 22.0489ZM124.187 20.104C124.187 19.6892 124.085 19.3036 123.866 18.9669C123.647 18.6324 123.332 18.3757 122.95 18.1848L122.503 19.0792C122.761 19.2083 122.926 19.357 123.028 19.5131C123.128 19.6671 123.187 19.8574 123.187 20.104H124.187ZM122.956 18.1879C122.291 17.8434 121.258 17.4805 119.886 17.0947L119.615 18.0573C120.974 18.4395 121.926 18.7806 122.497 19.0761L122.956 18.1879ZM119.883 17.0938C118.571 16.734 117.515 16.3882 116.709 16.0574L116.329 16.9826C117.187 17.3345 118.285 17.6926 119.619 18.0582L119.883 17.0938ZM116.709 16.0574C115.951 15.7466 115.288 15.2705 114.718 14.6219L113.967 15.2821C114.635 16.0415 115.423 16.6107 116.329 16.9826L116.709 16.0574ZM114.724 14.6285C114.221 14.0355 113.947 13.2318 113.947 12.168H112.947C112.947 13.4082 113.27 14.4605 113.961 15.2755L114.724 14.6285ZM113.947 12.168C113.947 11.3355 114.19 10.5844 114.684 9.90074L113.873 9.31525C113.258 10.1676 112.947 11.1232 112.947 12.168H113.947ZM114.688 9.89547C115.182 9.19226 115.894 8.6273 116.847 8.21008L116.446 7.29392C115.352 7.7727 114.485 8.44508 113.87 9.32053L114.688 9.89547ZM116.844 8.21157C117.817 7.79464 118.942 7.58 120.231 7.58V6.58C118.831 6.58 117.568 6.81336 116.45 7.29243L116.844 8.21157ZM120.231 7.58C122.15 7.58 123.636 8.06853 124.741 8.99846L125.385 8.23354C124.057 7.11547 122.322 6.58 120.231 6.58V7.58ZM124.748 9.00447C125.863 9.90803 126.468 11.1453 126.547 12.7684L127.546 12.7196C127.455 10.8441 126.737 9.32931 125.378 8.22753L124.748 9.00447ZM127.047 12.244H123.399V13.244H127.047V12.244ZM123.897 12.7036C123.823 11.7885 123.444 11.0299 122.755 10.4684L122.123 11.2436C122.586 11.6208 122.847 12.1209 122.9 12.7844L123.897 12.7036ZM122.755 10.4684C122.064 9.90592 121.162 9.652 120.103 9.652V10.652C121.006 10.652 121.661 10.8674 122.123 11.2436L122.755 10.4684ZM120.103 9.652C119.091 9.652 118.236 9.84138 117.606 10.288L118.184 11.104C118.577 10.8253 119.195 10.652 120.103 10.652V9.652ZM117.606 10.288C116.969 10.7388 116.627 11.3671 116.627 12.136H117.627C117.627 11.7103 117.796 11.3785 118.184 11.104L117.606 10.288ZM116.627 12.136C116.627 12.743 116.854 13.2699 117.297 13.6848L117.981 12.9552C117.741 12.7301 117.627 12.4676 117.627 12.136H116.627ZM117.297 13.6848C117.69 14.0534 118.162 14.3414 118.705 14.5536L119.069 13.6224C118.63 13.4506 118.27 13.2266 117.981 12.9552L117.297 13.6848ZM118.722 14.5602C119.226 14.7354 119.962 14.9624 120.924 15.2404L121.202 14.2796C120.244 14.003 119.529 13.7819 119.051 13.6158L118.722 14.5602ZM120.934 15.2431C122.199 15.5806 123.217 15.9245 123.995 16.2724L124.403 15.3596C123.559 14.9821 122.486 14.6221 121.192 14.2769L120.934 15.2431ZM124.009 16.2786C124.769 16.5903 125.42 17.0563 125.966 17.6813L126.719 17.0227C126.071 16.2823 125.293 15.7244 124.389 15.3534L124.009 16.2786ZM125.966 17.6813C126.468 18.255 126.751 19.0386 126.771 20.0814L127.771 20.0626C127.748 18.844 127.412 17.8143 126.719 17.0227L125.966 17.6813ZM126.771 20.072C126.771 20.9761 126.523 21.7708 126.03 22.4725L126.848 23.0475C127.464 22.1705 127.771 21.1733 127.771 20.072H126.771ZM126.03 22.4725C125.536 23.1757 124.824 23.7407 123.87 24.1579L124.271 25.0741C125.366 24.5953 126.233 23.9229 126.848 23.0475L126.03 22.4725ZM123.867 24.1595C122.942 24.5727 121.83 24.788 120.519 24.788V25.788C121.938 25.788 123.194 25.5553 124.275 25.0725L123.867 24.1595ZM135.468 10.344V9.844H134.968V10.344H135.468ZM135.917 21.544L135.563 21.8976L135.576 21.9102L135.589 21.9218L135.917 21.544ZM139.757 21.96H140.257V21.46H139.757V21.96ZM139.757 25V25.5H140.257V25H139.757ZM133.101 23.848L132.771 24.2237L133.101 23.848ZM131.789 10.344H132.289V9.844H131.789V10.344ZM129.708 10.344H129.208V10.844H129.708V10.344ZM129.708 7.368V6.868H129.208V7.368H129.708ZM131.789 7.368V7.868H132.289V7.368H131.789ZM131.789 2.984V2.484H131.289V2.984H131.789ZM135.468 2.984H135.968V2.484H135.468V2.984ZM135.468 7.368H134.968V7.868H135.468V7.368ZM139.757 7.368H140.257V6.868H139.757V7.368ZM139.757 10.344V10.844H140.257V10.344H139.757ZM134.968 10.344V20.104H135.968V10.344H134.968ZM134.968 20.104C134.968 20.8251 135.129 21.4638 135.563 21.8976L136.27 21.1904C136.106 21.0269 135.968 20.7056 135.968 20.104H134.968ZM135.589 21.9218C136.047 22.3191 136.733 22.46 137.517 22.46V21.46C136.807 21.46 136.426 21.3235 136.244 21.1662L135.589 21.9218ZM137.517 22.46H139.757V21.46H137.517V22.46ZM139.257 21.96V25H140.257V21.96H139.257ZM139.757 24.5H136.876V25.5H139.757V24.5ZM136.876 24.5C135.306 24.5 134.182 24.1326 133.43 23.4723L132.771 24.2237C133.768 25.0994 135.162 25.5 136.876 25.5V24.5ZM133.43 23.4723C132.708 22.8375 132.289 21.7587 132.289 20.104H131.289C131.289 21.9053 131.744 23.3225 132.771 24.2237L133.43 23.4723ZM132.289 20.104V10.344H131.289V20.104H132.289ZM131.789 9.844H129.708V10.844H131.789V9.844ZM130.208 10.344V7.368H129.208V10.344H130.208ZM129.708 7.868H131.789V6.868H129.708V7.868ZM132.289 7.368V2.984H131.289V7.368H132.289ZM131.789 3.484H135.468V2.484H131.789V3.484ZM134.968 2.984V7.368H135.968V2.984H134.968ZM135.468 7.868H139.757V6.868H135.468V7.868ZM139.257 7.368V10.344H140.257V7.368H139.257ZM139.757 9.844H135.468V10.844H139.757V9.844ZM159.151 17.544V18.044H159.577L159.644 17.623L159.151 17.544ZM145.679 17.544V17.044H145.139L145.18 17.5818L145.679 17.544ZM147.247 20.936L146.91 21.306L147.247 20.936ZM154.863 19.752V19.252H154.552L154.414 19.5307L154.863 19.752ZM158.799 19.752L159.274 19.9082L159.49 19.252H158.799V19.752ZM155.887 23.752L156.184 24.1542L156.185 24.1535L155.887 23.752ZM146.159 24.168L145.908 24.6005L145.916 24.6051L146.159 24.168ZM143.023 20.968L142.582 21.2051L142.587 21.2131L143.023 20.968ZM142.991 11.4L142.551 11.1629L142.549 11.1654L142.991 11.4ZM146.095 8.2L145.852 7.76291L145.849 7.76459L146.095 8.2ZM155.151 8.168L155.394 7.73126L155.151 8.168ZM158.191 11.24L157.752 11.4804L157.754 11.4834L158.191 11.24ZM155.471 14.6V15.1H155.979L155.971 14.5921L155.471 14.6ZM154.031 11.368L154.358 10.9896L154.031 11.368ZM147.311 11.368L147.641 11.7432L147.646 11.7388L147.311 11.368ZM145.711 14.6L145.215 14.538L145.144 15.1H145.711V14.6ZM158.779 15.752C158.779 16.3925 158.737 16.9628 158.657 17.465L159.644 17.623C159.735 17.0585 159.779 16.4342 159.779 15.752H158.779ZM159.151 17.044H145.679V18.044H159.151V17.044ZM145.18 17.5818C145.295 19.1015 145.866 20.3567 146.91 21.306L147.583 20.566C146.75 19.8086 146.276 18.8025 146.177 17.5062L145.18 17.5818ZM146.91 21.306C147.948 22.2497 149.223 22.716 150.703 22.716V21.716C149.451 21.716 148.422 21.329 147.583 20.566L146.91 21.306ZM150.703 22.716C151.754 22.716 152.684 22.4956 153.47 22.0302C154.257 21.5636 154.869 20.8693 155.311 19.9733L154.414 19.5307C154.046 20.2773 153.559 20.8151 152.96 21.1698C152.359 21.5258 151.614 21.716 150.703 21.716V22.716ZM154.863 20.252H158.799V19.252H154.863V20.252ZM158.324 19.5958C157.824 21.1162 156.916 22.3649 155.589 23.3505L156.185 24.1535C157.673 23.0484 158.707 21.6304 159.274 19.9082L158.324 19.5958ZM155.59 23.3498C154.305 24.2983 152.687 24.788 150.703 24.788V25.788C152.857 25.788 154.695 25.2537 156.184 24.1542L155.59 23.3498ZM150.703 24.788C149.094 24.788 147.664 24.4324 146.402 23.7309L145.916 24.6051C147.341 25.3969 148.941 25.788 150.703 25.788V24.788ZM146.41 23.7356C145.166 23.0135 144.184 22.0124 143.459 20.7229L142.587 21.2131C143.398 22.6543 144.506 23.7865 145.908 24.6004L146.41 23.7356ZM143.463 20.7309C142.761 19.4275 142.403 17.9112 142.403 16.168H141.403C141.403 18.0515 141.791 19.7352 142.583 21.205L143.463 20.7309ZM142.403 16.168C142.403 14.4223 142.751 12.9161 143.432 11.6346L142.549 11.1654C141.779 12.6145 141.403 14.287 141.403 16.168H142.403ZM143.431 11.637C144.135 10.3303 145.103 9.33388 146.341 8.63541L145.849 7.76459C144.441 8.55945 143.34 9.69635 142.551 11.1629L143.431 11.637ZM146.338 8.63708C147.598 7.93659 149.049 7.58 150.703 7.58V6.58C148.9 6.58 147.279 6.97008 145.852 7.76292L146.338 8.63708ZM150.703 7.58C152.292 7.58 153.689 7.92557 154.907 8.60474L155.394 7.73126C154.01 6.95976 152.442 6.58 150.703 6.58V7.58ZM154.907 8.60474C156.125 9.28367 157.072 10.2391 157.752 11.4804L158.629 10.9996C157.859 9.59553 156.779 8.50299 155.394 7.73126L154.907 8.60474ZM157.754 11.4834C158.432 12.7001 158.779 14.118 158.779 15.752H159.779C159.779 13.9727 159.4 12.3826 158.627 10.9966L157.754 11.4834ZM155.971 14.5921C155.947 13.119 155.414 11.9019 154.358 10.9896L153.704 11.7464C154.525 12.4555 154.952 13.393 154.971 14.6079L155.971 14.5921ZM154.358 10.9896C153.317 10.0911 152.034 9.652 150.543 9.652V10.652C151.825 10.652 152.867 11.0235 153.704 11.7464L154.358 10.9896ZM150.543 9.652C149.166 9.652 147.967 10.0997 146.975 10.9972L147.646 11.7388C148.446 11.015 149.402 10.652 150.543 10.652V9.652ZM146.98 10.9928C145.979 11.875 145.398 13.0712 145.215 14.538L146.207 14.662C146.365 13.3982 146.851 12.4397 147.641 11.7432L146.98 10.9928ZM145.711 15.1H155.471V14.1H145.711V15.1ZM187.925 7.944L187.691 8.38591L187.694 8.38775L187.925 7.944ZM190.517 10.504L190.078 10.744L190.082 10.7503L190.517 10.504ZM191.477 25V25.5H191.977V25H191.477ZM187.861 25H187.361V25.5H187.861V25ZM186.677 11.528L186.31 11.8675L186.314 11.8721L186.677 11.528ZM180.181 11.528L179.818 11.1836L179.818 11.1839L180.181 11.528ZM178.997 25V25.5H179.497V25H178.997ZM175.381 25H174.881V25.5H175.381V25ZM174.197 11.528L173.83 11.8675L173.834 11.8721L174.197 11.528ZM167.701 11.528L167.338 11.1836L167.338 11.1839L167.701 11.528ZM166.517 25V25.5H167.017V25H166.517ZM162.869 25H162.369V25.5H162.869V25ZM162.869 7.368V6.868H162.369V7.368H162.869ZM166.517 7.368H167.017V6.868H166.517V7.368ZM166.517 9.384H166.017V10.7777L166.903 9.70185L166.517 9.384ZM168.789 7.688L168.991 8.14534V8.14534L168.789 7.688ZM175.509 7.976L175.746 7.53576L175.509 7.976ZM178.069 10.568L177.627 10.8016L178.081 11.6616L178.516 10.7916L178.069 10.568ZM180.565 8.04L180.805 8.47868L180.811 8.47513L180.565 8.04ZM184.213 7.58C185.528 7.58 186.684 7.85265 187.691 8.38589L188.159 7.5021C186.99 6.88334 185.671 6.58 184.213 6.58V7.58ZM187.694 8.38775C188.713 8.91652 189.506 9.69754 190.078 10.744L190.955 10.264C190.291 9.04912 189.355 8.12348 188.155 7.50025L187.694 8.38775ZM190.082 10.7503C190.67 11.7903 190.977 13.0665 190.977 14.6H191.977C191.977 12.9335 191.643 11.479 190.952 10.2577L190.082 10.7503ZM190.977 14.6V25H191.977V14.6H190.977ZM191.477 24.5H187.861V25.5H191.477V24.5ZM188.361 25V15.144H187.361V25H188.361ZM188.361 15.144C188.361 13.4861 187.946 12.139 187.039 11.1839L186.314 11.8721C186.987 12.581 187.361 13.6445 187.361 15.144H188.361ZM187.044 11.1885C186.143 10.2149 184.923 9.748 183.445 9.748V10.748C184.697 10.748 185.632 11.1345 186.31 11.8675L187.044 11.1885ZM183.445 9.748C181.966 9.748 180.739 10.2148 179.818 11.1836L180.543 11.8724C181.244 11.1345 182.193 10.748 183.445 10.748V9.748ZM179.818 11.1839C178.912 12.139 178.497 13.4861 178.497 15.144H179.497C179.497 13.6445 179.871 12.581 180.543 11.8721L179.818 11.1839ZM178.497 15.144V25H179.497V15.144H178.497ZM178.997 24.5H175.381V25.5H178.997V24.5ZM175.881 25V15.144H174.881V25H175.881ZM175.881 15.144C175.881 13.4861 175.466 12.139 174.559 11.1839L173.834 11.8721C174.507 12.581 174.881 13.6445 174.881 15.144H175.881ZM174.564 11.1885C173.663 10.2149 172.443 9.748 170.965 9.748V10.748C172.217 10.748 173.152 11.1345 173.83 11.8675L174.564 11.1885ZM170.965 9.748C169.486 9.748 168.259 10.2148 167.338 11.1836L168.063 11.8724C168.764 11.1345 169.713 10.748 170.965 10.748V9.748ZM167.338 11.1839C166.432 12.139 166.017 13.4861 166.017 15.144H167.017C167.017 13.6445 167.391 12.581 168.063 11.8721L167.338 11.1839ZM166.017 15.144V25H167.017V15.144H166.017ZM166.517 24.5H162.869V25.5H166.517V24.5ZM163.369 25V7.368H162.369V25H163.369ZM162.869 7.868H166.517V6.868H162.869V7.868ZM166.017 7.368V9.384H167.017V7.368H166.017ZM166.903 9.70185C167.447 9.04074 168.14 8.52133 168.991 8.14534L168.587 7.23066C167.603 7.66534 166.781 8.27659 166.131 9.06614L166.903 9.70185ZM168.991 8.14534C169.842 7.76933 170.754 7.58 171.733 7.58V6.58C170.621 6.58 169.57 6.796 168.587 7.23066L168.991 8.14534ZM171.733 7.58C173.068 7.58 174.243 7.86257 175.272 8.41624L175.746 7.53576C174.555 6.89477 173.214 6.58 171.733 6.58V7.58ZM175.272 8.41624C176.292 8.9658 177.075 9.7572 177.627 10.8016L178.511 10.3344C177.868 9.11746 176.944 8.18087 175.746 7.53576L175.272 8.41624ZM178.516 10.7916C179 9.82349 179.756 9.05255 180.805 8.47863L180.325 7.60137C179.112 8.26478 178.204 9.17918 177.622 10.3444L178.516 10.7916ZM180.811 8.47513C181.866 7.87772 182.998 7.58 184.213 7.58V6.58C182.825 6.58 181.524 6.92228 180.318 7.60487L180.811 8.47513Z" fill="#00875F"/>
<path d="M6.048 9.992C6.66667 9.13867 7.50933 8.44533 8.576 7.912C9.664 7.35733 10.8693 7.08 12.192 7.08C13.7493 7.08 15.1573 7.45333 16.416 8.2C17.6747 8.94667 18.6667 10.0133 19.392 11.4C20.1173 12.7653 20.48 14.3333 20.48 16.104C20.48 17.8747 20.1173 19.464 19.392 20.872C18.6667 22.2587 17.664 23.3467 16.384 24.136C15.1253 24.904 13.728 25.288 12.192 25.288C10.8267 25.288 9.61067 25.0213 8.544 24.488C7.49867 23.9547 6.66667 23.272 6.048 22.44V25H2.4V1.32H6.048V9.992ZM16.768 16.104C16.768 14.888 16.512 13.8427 16 12.968C15.5093 12.072 14.848 11.4 14.016 10.952C13.2053 10.4827 12.3307 10.248 11.392 10.248C10.4747 10.248 9.6 10.4827 8.768 10.952C7.95733 11.4213 7.296 12.104 6.784 13C6.29333 13.896 6.048 14.952 6.048 16.168C6.048 17.384 6.29333 18.4507 6.784 19.368C7.296 20.264 7.95733 20.9467 8.768 21.416C9.6 21.8853 10.4747 22.12 11.392 22.12C12.3307 22.12 13.2053 21.8853 14.016 21.416C14.848 20.9253 15.5093 20.2213 16 19.304C16.512 18.3867 16.768 17.32 16.768 16.104ZM40.2475 15.752C40.2475 16.4133 40.2048 17.0107 40.1195 17.544H26.6475C26.7542 18.952 27.2768 20.0827 28.2155 20.936C29.1542 21.7893 30.3062 22.216 31.6715 22.216C33.6342 22.216 35.0208 21.3947 35.8315 19.752H39.7675C39.2342 21.3733 38.2635 22.7067 36.8555 23.752C35.4688 24.776 33.7408 25.288 31.6715 25.288C29.9862 25.288 28.4715 24.9147 27.1275 24.168C25.8048 23.4 24.7595 22.3333 23.9915 20.968C23.2448 19.5813 22.8715 17.9813 22.8715 16.168C22.8715 14.3547 23.2342 12.7653 23.9595 11.4C24.7062 10.0133 25.7408 8.94667 27.0635 8.2C28.4075 7.45333 29.9435 7.08 31.6715 7.08C33.3355 7.08 34.8182 7.44267 36.1195 8.168C37.4208 8.89333 38.4342 9.91733 39.1595 11.24C39.8848 12.5413 40.2475 14.0453 40.2475 15.752ZM36.4395 14.6C36.4182 13.256 35.9382 12.1787 34.9995 11.368C34.0608 10.5573 32.8982 10.152 31.5115 10.152C30.2528 10.152 29.1755 10.5573 28.2795 11.368C27.3835 12.1573 26.8502 13.2347 26.6795 14.6H36.4395ZM42.6215 16.104C42.6215 14.3333 42.9842 12.7653 43.7095 11.4C44.4562 10.0347 45.4588 8.97867 46.7175 8.232C47.9975 7.464 49.4055 7.08 50.9415 7.08C52.3282 7.08 53.5335 7.35733 54.5575 7.912C55.6028 8.44533 56.4348 9.11733 57.0535 9.928V7.368H60.7335V25H57.0535V22.376C56.4348 23.208 55.5922 23.9013 54.5255 24.456C53.4588 25.0107 52.2428 25.288 50.8775 25.288C49.3628 25.288 47.9762 24.904 46.7175 24.136C45.4588 23.3467 44.4562 22.2587 43.7095 20.872C42.9842 19.464 42.6215 17.8747 42.6215 16.104ZM57.0535 16.168C57.0535 14.952 56.7975 13.896 56.2855 13C55.7948 12.104 55.1442 11.4213 54.3335 10.952C53.5228 10.4827 52.6482 10.248 51.7095 10.248C50.7708 10.248 49.8962 10.4827 49.0855 10.952C48.2748 11.4 47.6135 12.072 47.1015 12.968C46.6108 13.8427 46.3655 14.888 46.3655 16.104C46.3655 17.32 46.6108 18.3867 47.1015 19.304C47.6135 20.2213 48.2748 20.9253 49.0855 21.416C49.9175 21.8853 50.7922 22.12 51.7095 22.12C52.6482 22.12 53.5228 21.8853 54.3335 21.416C55.1442 20.9467 55.7948 20.264 56.2855 19.368C56.7975 18.4507 57.0535 17.384 57.0535 16.168ZM69.173 9.928C69.7063 9.032 70.4103 8.33867 71.285 7.848C72.181 7.336 73.237 7.08 74.453 7.08V10.856H73.525C72.0957 10.856 71.0077 11.2187 70.261 11.944C69.5357 12.6693 69.173 13.928 69.173 15.72V25H65.525V7.368H69.173V9.928Z" fill="#F7F7F7"/>
<path d="M6.048 9.992H5.548V11.5335L6.45281 10.2855L6.048 9.992ZM8.576 7.912L8.79961 8.35923L8.80309 8.35745L8.576 7.912ZM16.416 8.2L16.6711 7.76997L16.416 8.2ZM19.392 11.4L18.9489 11.6318L18.9504 11.6346L19.392 11.4ZM19.392 20.872L19.8351 21.1038L19.8365 21.101L19.392 20.872ZM16.384 24.136L16.6444 24.5628L16.6464 24.5616L16.384 24.136ZM8.544 24.488L8.31676 24.9334L8.32039 24.9352L8.544 24.488ZM6.048 22.44L6.44923 22.1416L5.548 20.9296V22.44H6.048ZM6.048 25V25.5H6.548V25H6.048ZM2.4 25H1.9V25.5H2.4V25ZM2.4 1.32V0.82H1.9V1.32H2.4ZM6.048 1.32H6.548V0.82H6.048V1.32ZM16 12.968L15.5615 13.2082L15.5649 13.2144L15.5685 13.2206L16 12.968ZM14.016 10.952L13.7655 11.3847L13.7722 11.3886L13.779 11.3922L14.016 10.952ZM8.768 10.952L8.52232 10.5165L8.51748 10.5193L8.768 10.952ZM6.784 13L6.34981 12.7519L6.34545 12.7598L6.784 13ZM6.784 19.368L6.34294 19.6039L6.34988 19.6161L6.784 19.368ZM8.768 21.416L8.51747 21.8487L8.52234 21.8515L8.768 21.416ZM14.016 21.416L14.2665 21.8487L14.27 21.8467L14.016 21.416ZM16 19.304L15.5633 19.0603L15.5591 19.0682L16 19.304ZM6.45281 10.2855C7.01841 9.50533 7.79527 8.86138 8.79961 8.35921L8.35239 7.46479C7.2234 8.02928 6.31492 8.772 5.6432 9.69852L6.45281 10.2855ZM8.80309 8.35745C9.81503 7.84156 10.9416 7.58 12.192 7.58V6.58C10.7971 6.58 9.51297 6.8731 8.34891 7.46655L8.80309 8.35745ZM12.192 7.58C13.6655 7.58 14.9844 7.93212 16.1609 8.63003L16.6711 7.76997C15.3302 6.97454 13.8331 6.58 12.192 6.58V7.58ZM16.1609 8.63003C17.3342 9.32602 18.2635 10.3214 18.949 11.6317L19.835 11.1683C19.0698 9.70527 18.0152 8.56731 16.6711 7.76997L16.1609 8.63003ZM18.9504 11.6346C19.6321 12.9178 19.98 14.4031 19.98 16.104H20.98C20.98 14.2635 20.6025 12.6129 19.8336 11.1654L18.9504 11.6346ZM19.98 16.104C19.98 17.8045 19.6322 19.3138 18.9475 20.643L19.8365 21.101C20.6024 19.6142 20.98 17.9448 20.98 16.104H19.98ZM18.949 20.6403C18.2635 21.9506 17.3218 22.9702 16.1216 23.7104L16.6464 24.5616C18.0062 23.7231 19.0698 22.5667 19.835 21.1037L18.949 20.6403ZM16.1236 23.7092C14.9467 24.4273 13.6401 24.788 12.192 24.788V25.788C13.8159 25.788 15.304 25.3807 16.6444 24.5628L16.1236 23.7092ZM12.192 24.788C10.893 24.788 9.75541 24.5347 8.76761 24.0408L8.32039 24.9352C9.46593 25.508 10.7603 25.788 12.192 25.788V24.788ZM8.77124 24.0426C7.78534 23.5396 7.01626 22.9042 6.44923 22.1416L5.64677 22.7384C6.31708 23.6398 7.21199 24.3697 8.31677 24.9334L8.77124 24.0426ZM5.548 22.44V25H6.548V22.44H5.548ZM6.048 24.5H2.4V25.5H6.048V24.5ZM2.9 25V1.32H1.9V25H2.9ZM2.4 1.82H6.048V0.82H2.4V1.82ZM5.548 1.32V9.992H6.548V1.32H5.548ZM17.268 16.104C17.268 14.817 16.9966 13.6807 16.4315 12.7154L15.5685 13.2206C16.0274 14.0046 16.268 14.959 16.268 16.104H17.268ZM16.4385 12.7278C15.9054 11.7542 15.1771 11.0093 14.2531 10.5118L13.779 11.3922C14.5189 11.7907 15.1133 12.3897 15.5615 13.2082L16.4385 12.7278ZM14.2665 10.5193C13.3796 10.0058 12.4184 9.748 11.392 9.748V10.748C12.2429 10.748 13.0311 10.9596 13.7655 11.3847L14.2665 10.5193ZM11.392 9.748C10.385 9.748 9.42608 10.0067 8.52234 10.5165L9.01366 11.3875C9.77392 10.9586 10.5644 10.748 11.392 10.748V9.748ZM8.51748 10.5193C7.62277 11.0373 6.90112 11.7873 6.34988 12.7519L7.21812 13.2481C7.69088 12.4207 8.29189 11.8054 9.01852 11.3847L8.51748 10.5193ZM6.34545 12.7598C5.80744 13.7423 5.548 14.884 5.548 16.168H6.548C6.548 15.02 6.77923 14.0497 7.22255 13.2402L6.34545 12.7598ZM5.548 16.168C5.548 17.4523 5.80756 18.6026 6.34311 19.6038L7.22489 19.1322C6.77911 18.2988 6.548 17.3157 6.548 16.168H5.548ZM6.34988 19.6161C6.90112 20.5807 7.62277 21.3307 8.51748 21.8487L9.01852 20.9833C8.29189 20.5626 7.69088 19.9473 7.21812 19.1199L6.34988 19.6161ZM8.52234 21.8515C9.42608 22.3613 10.385 22.62 11.392 22.62V21.62C10.5644 21.62 9.77392 21.4094 9.01366 20.9805L8.52234 21.8515ZM11.392 22.62C12.4184 22.62 13.3796 22.3622 14.2665 21.8487L13.7655 20.9833C13.0311 21.4084 12.2429 21.62 11.392 21.62V22.62ZM14.27 21.8467C15.1871 21.3058 15.9104 20.5316 16.4409 19.5398L15.5591 19.0682C15.1082 19.9111 14.5089 20.5448 13.762 20.9853L14.27 21.8467ZM16.4366 19.5477C16.9963 18.5449 17.268 17.3917 17.268 16.104H16.268C16.268 17.2483 16.0277 18.2285 15.5634 19.0603L16.4366 19.5477ZM40.1195 17.544V18.044H40.5459L40.6132 17.623L40.1195 17.544ZM26.6475 17.544V17.044H26.1082L26.1489 17.5818L26.6475 17.544ZM28.2155 20.936L27.8792 21.306L28.2155 20.936ZM35.8315 19.752V19.252H35.5207L35.3831 19.5307L35.8315 19.752ZM39.7675 19.752L40.2425 19.9082L40.4583 19.252H39.7675V19.752ZM36.8555 23.752L37.1525 24.1542L37.1536 24.1535L36.8555 23.752ZM27.1275 24.168L26.8764 24.6005L26.8847 24.6051L27.1275 24.168ZM23.9915 20.968L23.5512 21.2051L23.5557 21.2131L23.9915 20.968ZM23.9595 11.4L23.5193 11.1629L23.5179 11.1654L23.9595 11.4ZM27.0635 8.2L26.8207 7.76291L26.8177 7.76459L27.0635 8.2ZM36.1195 8.168L36.3629 7.73126L36.1195 8.168ZM39.1595 11.24L38.7211 11.4804L38.7228 11.4834L39.1595 11.24ZM36.4395 14.6V15.1H36.9475L36.9394 14.5921L36.4395 14.6ZM34.9995 11.368L35.3263 10.9896L34.9995 11.368ZM28.2795 11.368L28.61 11.7432L28.615 11.7388L28.2795 11.368ZM26.6795 14.6L26.1834 14.538L26.1131 15.1H26.6795V14.6ZM39.7475 15.752C39.7475 16.3925 39.7061 16.9628 39.6258 17.465L40.6132 17.623C40.7035 17.0585 40.7475 16.4342 40.7475 15.752H39.7475ZM40.1195 17.044H26.6475V18.044H40.1195V17.044ZM26.1489 17.5818C26.2641 19.1015 26.835 20.3567 27.8792 21.306L28.5518 20.566C27.7187 19.8086 27.2443 18.8025 27.1461 17.5062L26.1489 17.5818ZM27.8792 21.306C28.9172 22.2497 30.1921 22.716 31.6715 22.716V21.716C30.4202 21.716 29.3911 21.329 28.5518 20.566L27.8792 21.306ZM31.6715 22.716C32.723 22.716 33.6526 22.4956 34.4383 22.0302C35.2261 21.5636 35.8377 20.8693 36.2799 19.9733L35.3831 19.5307C35.0147 20.2773 34.5276 20.8151 33.9287 21.1698C33.3277 21.5258 32.5827 21.716 31.6715 21.716V22.716ZM35.8315 20.252H39.7675V19.252H35.8315V20.252ZM39.2925 19.5958C38.7924 21.1162 37.885 22.3649 36.5574 23.3505L37.1536 24.1535C38.642 23.0484 39.6759 21.6304 40.2425 19.9082L39.2925 19.5958ZM36.5585 23.3498C35.274 24.2983 33.6559 24.788 31.6715 24.788V25.788C33.8258 25.788 35.6637 25.2537 37.1525 24.1542L36.5585 23.3498ZM31.6715 24.788C30.0628 24.788 28.6331 24.4324 27.3703 23.7309L26.8847 24.6051C28.3099 25.3969 29.9096 25.788 31.6715 25.788V24.788ZM27.3786 23.7356C26.135 23.0135 25.1526 22.0124 24.4273 20.7229L23.5557 21.2131C24.3664 22.6543 25.4746 23.7865 26.8764 24.6004L27.3786 23.7356ZM24.4317 20.7309C23.7299 19.4275 23.3715 17.9112 23.3715 16.168H22.3715C22.3715 18.0515 22.7598 19.7352 23.5513 21.205L24.4317 20.7309ZM23.3715 16.168C23.3715 14.4223 23.7202 12.9161 24.4011 11.6346L23.5179 11.1654C22.7481 12.6145 22.3715 14.287 22.3715 16.168H23.3715ZM24.3997 11.637C25.1034 10.3303 26.072 9.33388 27.3093 8.63541L26.8177 7.76459C25.4097 8.55945 24.309 9.69635 23.5193 11.1629L24.3997 11.637ZM27.3063 8.63708C28.5672 7.93659 30.0178 7.58 31.6715 7.58V6.58C29.8692 6.58 28.2478 6.97008 26.8207 7.76292L27.3063 8.63708ZM31.6715 7.58C33.2604 7.58 34.6576 7.92557 35.8761 8.60474L36.3629 7.73126C34.9788 6.95976 33.4105 6.58 31.6715 6.58V7.58ZM35.8761 8.60474C37.0942 9.28367 38.0404 10.2391 38.7211 11.4804L39.5979 10.9996C38.8279 9.59553 37.7475 8.50299 36.3629 7.73126L35.8761 8.60474ZM38.7228 11.4834C39.4009 12.7001 39.7475 14.118 39.7475 15.752H40.7475C40.7475 13.9727 40.3688 12.3826 39.5962 10.9966L38.7228 11.4834ZM36.9394 14.5921C36.9161 13.119 36.3826 11.9019 35.3263 10.9896L34.6727 11.7464C35.4937 12.4555 35.9203 13.393 35.9396 14.6079L36.9394 14.5921ZM35.3263 10.9896C34.286 10.0911 33.003 9.652 31.5115 9.652V10.652C32.7933 10.652 33.8357 11.0235 34.6727 11.7464L35.3263 10.9896ZM31.5115 9.652C30.1345 9.652 28.9361 10.0997 27.944 10.9972L28.615 11.7388C29.4149 11.015 30.3711 10.652 31.5115 10.652V9.652ZM27.949 10.9928C26.9476 11.875 26.3667 13.0712 26.1834 14.538L27.1756 14.662C27.3336 13.3982 27.8194 12.4397 28.61 11.7432L27.949 10.9928ZM26.6795 15.1H36.4395V14.1H26.6795V15.1ZM43.7095 11.4L43.2708 11.1601L43.2679 11.1654L43.7095 11.4ZM46.7175 8.232L46.9726 8.66203L46.9747 8.66075L46.7175 8.232ZM54.5575 7.912L54.3193 8.35178L54.3303 8.35738L54.5575 7.912ZM57.0535 9.928L56.656 10.2313L57.5535 11.4073V9.928H57.0535ZM57.0535 7.368V6.868H56.5535V7.368H57.0535ZM60.7335 7.368H61.2335V6.868H60.7335V7.368ZM60.7335 25V25.5H61.2335V25H60.7335ZM57.0535 25H56.5535V25.5H57.0535V25ZM57.0535 22.376H57.5535V20.8656L56.6523 22.0776L57.0535 22.376ZM54.5255 24.456L54.2948 24.0124L54.5255 24.456ZM46.7175 24.136L46.4518 24.5596L46.4571 24.5628L46.7175 24.136ZM43.7095 20.872L43.2649 21.101L43.2693 21.109L43.7095 20.872ZM56.2855 13L55.8469 13.2402L55.8514 13.2481L56.2855 13ZM54.3335 10.952L54.083 11.3847L54.3335 10.952ZM49.0855 10.952L49.3274 11.3897L49.336 11.3847L49.0855 10.952ZM47.1015 12.968L46.6674 12.7199L46.6654 12.7234L47.1015 12.968ZM47.1015 19.304L46.6605 19.5399L46.6649 19.5477L47.1015 19.304ZM49.0855 21.416L48.8266 21.8438L48.8332 21.8477L48.8398 21.8515L49.0855 21.416ZM54.3335 21.416L54.584 21.8487L54.3335 21.416ZM56.2855 19.368L55.8489 19.1243L55.847 19.1278L56.2855 19.368ZM43.1215 16.104C43.1215 14.4031 43.4694 12.9178 44.1511 11.6346L43.2679 11.1654C42.499 12.6129 42.1215 14.2635 42.1215 16.104H43.1215ZM44.1482 11.6399C44.8546 10.3481 45.796 9.36001 46.9726 8.66203L46.4624 7.80197C45.1217 8.59732 44.0577 9.72125 43.2708 11.1601L44.1482 11.6399ZM46.9747 8.66075C48.1747 7.94077 49.4934 7.58 50.9415 7.58V6.58C49.3176 6.58 47.8203 6.98723 46.4603 7.80325L46.9747 8.66075ZM50.9415 7.58C52.2608 7.58 53.3812 7.8435 54.3194 8.35164L54.7956 7.47235C53.6858 6.87117 52.3955 6.58 50.9415 6.58V7.58ZM54.3303 8.35738C55.319 8.86183 56.0891 9.48852 56.656 10.2313L57.451 9.62466C56.7805 8.74615 55.8867 8.02884 54.7847 7.46662L54.3303 8.35738ZM57.5535 9.928V7.368H56.5535V9.928H57.5535ZM57.0535 7.868H60.7335V6.868H57.0535V7.868ZM60.2335 7.368V25H61.2335V7.368H60.2335ZM60.7335 24.5H57.0535V25.5H60.7335V24.5ZM57.5535 25V22.376H56.5535V25H57.5535ZM56.6523 22.0776C56.0854 22.84 55.3051 23.4871 54.2948 24.0124L54.7562 24.8996C55.8793 24.3156 56.7843 23.576 57.4547 22.6744L56.6523 22.0776ZM54.2948 24.0124C53.3086 24.5252 52.1735 24.788 50.8775 24.788V25.788C52.3121 25.788 53.6091 25.4961 54.7562 24.8996L54.2948 24.0124ZM50.8775 24.788C49.4521 24.788 48.1559 24.428 46.9779 23.7092L46.4571 24.5628C47.7964 25.38 49.2736 25.788 50.8775 25.788V24.788ZM46.9831 23.7124C45.8023 22.9719 44.8579 21.9501 44.1497 20.635L43.2693 21.109C44.0544 22.5672 45.1154 23.7215 46.4519 24.5596L46.9831 23.7124ZM44.154 20.643C43.4693 19.3138 43.1215 17.8045 43.1215 16.104H42.1215C42.1215 17.9448 42.4991 19.6142 43.265 21.101L44.154 20.643ZM57.5535 16.168C57.5535 14.8806 57.2819 13.736 56.7196 12.7519L55.8514 13.2481C56.3131 14.056 56.5535 15.0234 56.5535 16.168H57.5535ZM56.724 12.7598C56.1936 11.7912 55.4809 11.0385 54.584 10.5193L54.083 11.3847C54.8075 11.8041 55.3961 12.4168 55.847 13.2402L56.724 12.7598ZM54.584 10.5193C53.6971 10.0058 52.7359 9.748 51.7095 9.748V10.748C52.5604 10.748 53.3486 10.9596 54.083 11.3847L54.584 10.5193ZM51.7095 9.748C50.6831 9.748 49.7219 10.0058 48.835 10.5193L49.336 11.3847C50.0704 10.9596 50.8586 10.748 51.7095 10.748V9.748ZM48.8437 10.5144C47.9438 11.0117 47.2195 11.7537 46.6674 12.7199L47.5356 13.2161C48.0075 12.3903 48.6059 11.7883 49.3273 11.3896L48.8437 10.5144ZM46.6654 12.7234C46.1248 13.6871 45.8655 14.8204 45.8655 16.104H46.8655C46.8655 14.9556 47.0969 13.9982 47.5376 13.2126L46.6654 12.7234ZM45.8655 16.104C45.8655 17.3883 46.1251 18.5386 46.6606 19.5398L47.5424 19.0682C47.0966 18.2348 46.8655 17.2517 46.8655 16.104H45.8655ZM46.6649 19.5477C47.2145 20.5323 47.9339 21.3034 48.8266 21.8438L49.3444 20.9883C48.6158 20.5472 48.0125 19.9103 47.5381 19.0603L46.6649 19.5477ZM48.8398 21.8515C49.7436 22.3613 50.7025 22.62 51.7095 22.62V21.62C50.8819 21.62 50.0914 21.4094 49.3312 20.9805L48.8398 21.8515ZM51.7095 22.62C52.7359 22.62 53.6971 22.3622 54.584 21.8487L54.083 20.9833C53.3486 21.4084 52.5604 21.62 51.7095 21.62V22.62ZM54.584 21.8487C55.4809 21.3295 56.1936 20.5768 56.724 19.6082L55.847 19.1278C55.3961 19.9512 54.8075 20.5639 54.083 20.9833L54.584 21.8487ZM56.7221 19.6117C57.2818 18.6089 57.5535 17.4557 57.5535 16.168H56.5535C56.5535 17.3123 56.3132 18.2925 55.8489 19.1243L56.7221 19.6117ZM69.173 9.928H68.673V11.7455L69.6026 10.1837L69.173 9.928ZM71.285 7.848L71.5296 8.28408L71.5331 8.28212L71.285 7.848ZM74.453 7.08H74.953V6.58H74.453V7.08ZM74.453 10.856V11.356H74.953V10.856H74.453ZM70.261 11.944L69.9126 11.5853L69.9074 11.5904L70.261 11.944ZM69.173 25V25.5H69.673V25H69.173ZM65.525 25H65.025V25.5H65.525V25ZM65.525 7.368V6.868H65.025V7.368H65.525ZM69.173 7.368H69.673V6.868H69.173V7.368ZM69.6026 10.1837C70.093 9.35991 70.7345 8.73013 71.5296 8.28407L71.0404 7.41193C70.0862 7.9472 69.3196 8.70409 68.7434 9.67226L69.6026 10.1837ZM71.5331 8.28212C72.341 7.82043 73.3084 7.58 74.453 7.58V6.58C73.1656 6.58 72.021 6.85157 71.0369 7.41388L71.5331 8.28212ZM73.953 7.08V10.856H74.953V7.08H73.953ZM74.453 10.356H73.525V11.356H74.453V10.356ZM73.525 10.356C72.015 10.356 70.7829 10.74 69.9126 11.5854L70.6094 12.3026C71.2325 11.6974 72.1764 11.356 73.525 11.356V10.356ZM69.9074 11.5904C69.039 12.4589 68.673 13.8871 68.673 15.72H69.673C69.673 13.9689 70.0324 12.8797 70.6146 12.2976L69.9074 11.5904ZM68.673 15.72V25H69.673V15.72H68.673ZM69.173 24.5H65.525V25.5H69.173V24.5ZM66.025 25V7.368H65.025V25H66.025ZM65.525 7.868H69.173V6.868H65.525V7.868ZM68.673 7.368V9.928H69.673V7.368H68.673Z" fill="#F7F7F7"/>
<path d="M196.344 24.375C196.344 23.6458 196.521 23.1302 196.875 22.8281C197.229 22.5156 197.661 22.3594 198.172 22.3594C198.703 22.3594 199.151 22.5156 199.516 22.8281C199.88 23.1302 200.062 23.6458 200.062 24.375C200.062 25.0938 199.88 25.6198 199.516 25.9531C199.151 26.276 198.703 26.4375 198.172 26.4375C197.661 26.4375 197.229 26.276 196.875 25.9531C196.521 25.6198 196.344 25.0938 196.344 24.375Z" fill="#F7F7F7"/>
<path d="M196.875 22.8281L197.2 23.2086L197.206 23.203L196.875 22.8281ZM199.516 22.8281L199.19 23.2078L199.197 23.2131L199.516 22.8281ZM199.516 25.9531L199.847 26.3275L199.853 26.3221L199.516 25.9531ZM196.875 25.9531L196.532 26.3173L196.538 26.3226L196.875 25.9531ZM196.844 24.375C196.844 23.7097 197.007 23.3727 197.199 23.2085L196.551 22.4477C196.035 22.8877 195.844 23.582 195.844 24.375H196.844ZM197.206 23.203C197.461 22.9779 197.773 22.8594 198.172 22.8594V21.8594C197.55 21.8594 196.997 22.0533 196.544 22.4532L197.206 23.203ZM198.172 22.8594C198.597 22.8594 198.926 22.9813 199.19 23.2078L199.841 22.4485C199.376 22.0499 198.809 21.8594 198.172 21.8594V22.8594ZM199.197 23.2131C199.396 23.3784 199.562 23.7137 199.562 24.375H200.562C200.562 23.578 200.364 22.882 199.835 22.4431L199.197 23.2131ZM199.562 24.375C199.562 25.0182 199.4 25.3818 199.178 25.5841L199.853 26.3221C200.361 25.8578 200.562 25.1693 200.562 24.375H199.562ZM199.184 25.5788C198.92 25.8131 198.593 25.9375 198.172 25.9375V26.9375C198.813 26.9375 199.383 26.7389 199.847 26.3274L199.184 25.5788ZM198.172 25.9375C197.777 25.9375 197.468 25.8168 197.212 25.5836L196.538 26.3226C196.991 26.7353 197.546 26.9375 198.172 26.9375V25.9375ZM197.218 25.589C197.004 25.3875 196.844 25.022 196.844 24.375H195.844C195.844 25.1655 196.038 25.8521 196.532 26.3172L197.218 25.589Z" fill="#F7F7F7"/>
</svg>
