<svg width="45" height="28" viewBox="0 0 45 28" fill="none" xmlns="http://www.w3.org/2000/svg">
<mask id="path-1-outside-1_17_2" maskUnits="userSpaceOnUse" x="20" y="8" width="17" height="20" fill="black">
<rect fill="white" x="20" y="8" width="17" height="20"/>
<path d="M28.8 27.288C27.4133 27.288 26.1653 27.0427 25.056 26.552C23.968 26.04 23.104 25.3573 22.464 24.504C21.824 23.6293 21.4827 22.6587 21.44 21.592H25.216C25.28 22.3387 25.632 22.968 26.272 23.48C26.9333 23.9707 27.7547 24.216 28.736 24.216C29.76 24.216 30.5493 24.024 31.104 23.64C31.68 23.2347 31.968 22.7227 31.968 22.104C31.968 21.4427 31.648 20.952 31.008 20.632C30.3893 20.312 29.3973 19.96 28.032 19.576C26.7093 19.2133 25.632 18.8613 24.8 18.52C23.968 18.1787 23.2427 17.656 22.624 16.952C22.0267 16.248 21.728 15.32 21.728 14.168C21.728 13.2293 22.0053 12.376 22.56 11.608C23.1147 10.8187 23.904 10.2 24.928 9.752C25.9733 9.304 27.168 9.08 28.512 9.08C30.5173 9.08 32.128 9.592 33.344 10.616C34.5813 11.6187 35.2427 12.9947 35.328 14.744H31.68C31.616 13.9547 31.296 13.3253 30.72 12.856C30.144 12.3867 29.3653 12.152 28.384 12.152C27.424 12.152 26.688 12.3333 26.176 12.696C25.664 13.0587 25.408 13.5387 25.408 14.136C25.408 14.6053 25.5787 15 25.92 15.32C26.2613 15.64 26.6773 15.896 27.168 16.088C27.6587 16.2587 28.384 16.4827 29.344 16.76C30.624 17.1013 31.6693 17.4533 32.48 17.816C33.312 18.1573 34.0267 18.6693 34.624 19.352C35.2213 20.0347 35.5307 20.9413 35.552 22.072C35.552 23.0747 35.2747 23.9707 34.72 24.76C34.1653 25.5493 33.376 26.168 32.352 26.616C31.3493 27.064 30.1653 27.288 28.8 27.288Z"/>
</mask>
<path d="M28.8 27.288C27.4133 27.288 26.1653 27.0427 25.056 26.552C23.968 26.04 23.104 25.3573 22.464 24.504C21.824 23.6293 21.4827 22.6587 21.44 21.592H25.216C25.28 22.3387 25.632 22.968 26.272 23.48C26.9333 23.9707 27.7547 24.216 28.736 24.216C29.76 24.216 30.5493 24.024 31.104 23.64C31.68 23.2347 31.968 22.7227 31.968 22.104C31.968 21.4427 31.648 20.952 31.008 20.632C30.3893 20.312 29.3973 19.96 28.032 19.576C26.7093 19.2133 25.632 18.8613 24.8 18.52C23.968 18.1787 23.2427 17.656 22.624 16.952C22.0267 16.248 21.728 15.32 21.728 14.168C21.728 13.2293 22.0053 12.376 22.56 11.608C23.1147 10.8187 23.904 10.2 24.928 9.752C25.9733 9.304 27.168 9.08 28.512 9.08C30.5173 9.08 32.128 9.592 33.344 10.616C34.5813 11.6187 35.2427 12.9947 35.328 14.744H31.68C31.616 13.9547 31.296 13.3253 30.72 12.856C30.144 12.3867 29.3653 12.152 28.384 12.152C27.424 12.152 26.688 12.3333 26.176 12.696C25.664 13.0587 25.408 13.5387 25.408 14.136C25.408 14.6053 25.5787 15 25.92 15.32C26.2613 15.64 26.6773 15.896 27.168 16.088C27.6587 16.2587 28.384 16.4827 29.344 16.76C30.624 17.1013 31.6693 17.4533 32.48 17.816C33.312 18.1573 34.0267 18.6693 34.624 19.352C35.2213 20.0347 35.5307 20.9413 35.552 22.072C35.552 23.0747 35.2747 23.9707 34.72 24.76C34.1653 25.5493 33.376 26.168 32.352 26.616C31.3493 27.064 30.1653 27.288 28.8 27.288Z" fill="#00875F"/>
<path d="M25.056 26.552L24.843 27.0045L24.8537 27.0093L25.056 26.552ZM22.464 24.504L22.0605 24.7993L22.064 24.804L22.464 24.504ZM21.44 21.592V21.092H20.9196L20.9404 21.612L21.44 21.592ZM25.216 21.592L25.7142 21.5493L25.675 21.092H25.216V21.592ZM26.272 23.48L25.9597 23.8704L25.9668 23.8761L25.9741 23.8815L26.272 23.48ZM31.104 23.64L31.3886 24.0511L31.3917 24.0489L31.104 23.64ZM31.008 20.632L30.7783 21.0761L30.7844 21.0792L31.008 20.632ZM28.032 19.576L28.1674 19.0947L28.1642 19.0938L28.032 19.576ZM24.8 18.52L24.6102 18.9826L24.6102 18.9826L24.8 18.52ZM22.624 16.952L22.2427 17.2755L22.2484 17.2821L22.624 16.952ZM22.56 11.608L22.9654 11.9008L22.9691 11.8955L22.56 11.608ZM24.928 9.752L24.731 9.29241L24.7276 9.29392L24.928 9.752ZM33.344 10.616L33.0219 10.9985L33.0292 11.0045L33.344 10.616ZM35.328 14.744V15.244H35.853L35.8274 14.7196L35.328 14.744ZM31.68 14.744L31.1816 14.7844L31.2189 15.244H31.68V14.744ZM30.72 12.856L31.0358 12.4684L31.0358 12.4684L30.72 12.856ZM26.176 12.696L25.887 12.288L25.887 12.288L26.176 12.696ZM25.92 15.32L25.578 15.6848L25.578 15.6848L25.92 15.32ZM27.168 16.088L26.9858 16.5536L26.9947 16.5571L27.0037 16.5602L27.168 16.088ZM29.344 16.76L29.2052 17.2405L29.2152 17.2431L29.344 16.76ZM32.48 17.816L32.2758 18.2724L32.283 18.2756L32.2902 18.2786L32.48 17.816ZM34.624 19.352L34.2477 19.6813L34.2477 19.6813L34.624 19.352ZM35.552 22.072H36.0521L36.0519 22.0626L35.552 22.072ZM34.72 24.76L34.3109 24.4725L34.3109 24.4725L34.72 24.76ZM32.352 26.616L32.1516 26.1579L32.148 26.1595L32.352 26.616ZM28.8 26.788C27.4731 26.788 26.2954 26.5535 25.2583 26.0947L24.8537 27.0093C26.0353 27.5319 27.3536 27.788 28.8 27.788V26.788ZM25.2689 26.0996C24.2452 25.6179 23.4491 24.9841 22.864 24.204L22.064 24.804C22.7589 25.7306 23.6908 26.4621 24.8431 27.0044L25.2689 26.0996ZM22.8675 24.2087C22.2852 23.4129 21.9782 22.5378 21.9396 21.572L20.9404 21.612C20.9871 22.7795 21.3628 23.8457 22.0605 24.7993L22.8675 24.2087ZM21.44 22.092H25.216V21.092H21.44V22.092ZM24.7178 21.6347C24.7947 22.5314 25.2238 23.2818 25.9597 23.8704L26.5843 23.0896C26.0402 22.6542 25.7653 22.1459 25.7142 21.5493L24.7178 21.6347ZM25.9741 23.8815C26.7372 24.4477 27.6685 24.716 28.736 24.716V23.716C27.8408 23.716 27.1295 23.4936 26.5699 23.0785L25.9741 23.8815ZM28.736 24.716C29.8123 24.716 30.7173 24.5159 31.3886 24.0511L30.8194 23.2289C30.3814 23.5321 29.7077 23.716 28.736 23.716V24.716ZM31.3917 24.0489C32.0795 23.5649 32.468 22.9098 32.468 22.104H31.468C31.468 22.5355 31.2805 22.9044 30.8163 23.2311L31.3917 24.0489ZM32.468 22.104C32.468 21.6892 32.3664 21.3036 32.1468 20.9669C31.9287 20.6324 31.6134 20.3757 31.2316 20.1848L30.7844 21.0792C31.0426 21.2083 31.2073 21.357 31.3092 21.5131C31.4096 21.6671 31.468 21.8574 31.468 22.104H32.468ZM31.2377 20.1879C30.5718 19.8434 29.5391 19.4805 28.1674 19.0947L27.8966 20.0573C29.2556 20.4395 30.2069 20.7806 30.7783 21.0761L31.2377 20.1879ZM28.1642 19.0938C26.8521 18.734 25.796 18.3882 24.9898 18.0574L24.6102 18.9826C25.468 19.3345 26.5666 19.6926 27.8998 20.0582L28.1642 19.0938ZM24.9898 18.0574C24.2321 17.7466 23.5696 17.2705 22.9996 16.6219L22.2484 17.2821C22.9158 18.0415 23.7039 18.6107 24.6102 18.9826L24.9898 18.0574ZM23.0053 16.6285C22.5021 16.0355 22.228 15.2318 22.228 14.168H21.228C21.228 15.4082 21.5512 16.4605 22.2427 17.2755L23.0053 16.6285ZM22.228 14.168C22.228 13.3355 22.4716 12.5844 22.9653 11.9007L22.1547 11.3153C21.5391 12.1676 21.228 13.1232 21.228 14.168H22.228ZM22.9691 11.8955C23.4632 11.1923 24.1748 10.6273 25.1284 10.2101L24.7276 9.29392C23.6332 9.7727 22.7661 10.4451 22.1509 11.3205L22.9691 11.8955ZM25.125 10.2116C26.0978 9.79464 27.2236 9.58 28.512 9.58V8.58C27.1124 8.58 25.8489 8.81336 24.731 9.29243L25.125 10.2116ZM28.512 9.58C30.4311 9.58 31.9176 10.0685 33.0219 10.9985L33.6661 10.2335C32.3384 9.11547 30.6035 8.58 28.512 8.58V9.58ZM33.0292 11.0045C34.1442 11.908 34.7494 13.1453 34.8286 14.7684L35.8274 14.7196C35.7359 12.8441 35.0184 11.3293 33.6588 10.2275L33.0292 11.0045ZM35.328 14.244H31.68V15.244H35.328V14.244ZM32.1784 14.7036C32.1042 13.7885 31.7249 13.0299 31.0358 12.4684L30.4042 13.2436C30.8671 13.6208 31.1278 14.1209 31.1816 14.7844L32.1784 14.7036ZM31.0358 12.4684C30.3455 11.9059 29.4432 11.652 28.384 11.652V12.652C29.2874 12.652 29.9425 12.8674 30.4042 13.2436L31.0358 12.4684ZM28.384 11.652C27.3719 11.652 26.5175 11.8414 25.887 12.288L26.465 13.104C26.8585 12.8253 27.4761 12.652 28.384 12.652V11.652ZM25.887 12.288C25.2505 12.7388 24.908 13.3671 24.908 14.136H25.908C25.908 13.7103 26.0775 13.3785 26.465 13.104L25.887 12.288ZM24.908 14.136C24.908 14.743 25.1355 15.2699 25.578 15.6848L26.262 14.9552C26.0218 14.7301 25.908 14.4676 25.908 14.136H24.908ZM25.578 15.6848C25.9712 16.0534 26.4434 16.3414 26.9858 16.5536L27.3502 15.6224C26.9113 15.4506 26.5515 15.2266 26.262 14.9552L25.578 15.6848ZM27.0037 16.5602C27.5073 16.7354 28.2429 16.9624 29.2052 17.2404L29.4828 16.2796C28.5251 16.003 27.81 15.7819 27.3323 15.6158L27.0037 16.5602ZM29.2152 17.2431C30.4806 17.5806 31.4982 17.9245 32.2758 18.2724L32.6842 17.3596C31.8404 16.9821 30.7674 16.6221 29.4728 16.2769L29.2152 17.2431ZM32.2902 18.2786C33.0499 18.5903 33.7009 19.0563 34.2477 19.6813L35.0003 19.0227C34.3524 18.2823 33.5741 17.7244 32.6698 17.3534L32.2902 18.2786ZM34.2477 19.6813C34.7497 20.255 35.0324 21.0386 35.0521 22.0814L36.0519 22.0626C36.0289 20.844 35.6929 19.8143 35.0003 19.0227L34.2477 19.6813ZM35.052 22.072C35.052 22.9761 34.804 23.7708 34.3109 24.4725L35.1291 25.0475C35.7453 24.1705 36.052 23.1733 36.052 22.072H35.052ZM34.3109 24.4725C33.8168 25.1757 33.1052 25.7407 32.1516 26.1579L32.5524 27.0741C33.6468 26.5953 34.5139 25.9229 35.1291 25.0475L34.3109 24.4725ZM32.148 26.1595C31.2231 26.5727 30.1117 26.788 28.8 26.788V27.788C30.219 27.788 31.4755 27.5553 32.556 27.0725L32.148 26.1595Z" fill="#00875F" mask="url(#path-1-outside-1_17_2)"/>
<mask id="path-3-outside-2_17_2" maskUnits="userSpaceOnUse" x="1" y="2" width="20" height="26" fill="black">
<rect fill="white" x="1" y="2" width="20" height="26"/>
<path d="M6.048 11.992C6.66667 11.1387 7.50933 10.4453 8.576 9.912C9.664 9.35733 10.8693 9.08 12.192 9.08C13.7493 9.08 15.1573 9.45333 16.416 10.2C17.6747 10.9467 18.6667 12.0133 19.392 13.4C20.1173 14.7653 20.48 16.3333 20.48 18.104C20.48 19.8747 20.1173 21.464 19.392 22.872C18.6667 24.2587 17.664 25.3467 16.384 26.136C15.1253 26.904 13.728 27.288 12.192 27.288C10.8267 27.288 9.61067 27.0213 8.544 26.488C7.49867 25.9547 6.66667 25.272 6.048 24.44V27H2.4V3.32H6.048V11.992ZM16.768 18.104C16.768 16.888 16.512 15.8427 16 14.968C15.5093 14.072 14.848 13.4 14.016 12.952C13.2053 12.4827 12.3307 12.248 11.392 12.248C10.4747 12.248 9.6 12.4827 8.768 12.952C7.95733 13.4213 7.296 14.104 6.784 15C6.29333 15.896 6.048 16.952 6.048 18.168C6.048 19.384 6.29333 20.4507 6.784 21.368C7.296 22.264 7.95733 22.9467 8.768 23.416C9.6 23.8853 10.4747 24.12 11.392 24.12C12.3307 24.12 13.2053 23.8853 14.016 23.416C14.848 22.9253 15.5093 22.2213 16 21.304C16.512 20.3867 16.768 19.32 16.768 18.104Z"/>
</mask>
<path d="M6.048 11.992C6.66667 11.1387 7.50933 10.4453 8.576 9.912C9.664 9.35733 10.8693 9.08 12.192 9.08C13.7493 9.08 15.1573 9.45333 16.416 10.2C17.6747 10.9467 18.6667 12.0133 19.392 13.4C20.1173 14.7653 20.48 16.3333 20.48 18.104C20.48 19.8747 20.1173 21.464 19.392 22.872C18.6667 24.2587 17.664 25.3467 16.384 26.136C15.1253 26.904 13.728 27.288 12.192 27.288C10.8267 27.288 9.61067 27.0213 8.544 26.488C7.49867 25.9547 6.66667 25.272 6.048 24.44V27H2.4V3.32H6.048V11.992ZM16.768 18.104C16.768 16.888 16.512 15.8427 16 14.968C15.5093 14.072 14.848 13.4 14.016 12.952C13.2053 12.4827 12.3307 12.248 11.392 12.248C10.4747 12.248 9.6 12.4827 8.768 12.952C7.95733 13.4213 7.296 14.104 6.784 15C6.29333 15.896 6.048 16.952 6.048 18.168C6.048 19.384 6.29333 20.4507 6.784 21.368C7.296 22.264 7.95733 22.9467 8.768 23.416C9.6 23.8853 10.4747 24.12 11.392 24.12C12.3307 24.12 13.2053 23.8853 14.016 23.416C14.848 22.9253 15.5093 22.2213 16 21.304C16.512 20.3867 16.768 19.32 16.768 18.104Z" fill="#181818"/>
<path d="M6.048 11.992H5.548V13.5335L6.45281 12.2855L6.048 11.992ZM8.576 9.912L8.79961 10.3592L8.80309 10.3575L8.576 9.912ZM16.416 10.2L16.6711 9.76997L16.6711 9.76997L16.416 10.2ZM19.392 13.4L18.9489 13.6318L18.9504 13.6346L19.392 13.4ZM19.392 22.872L19.8351 23.1038L19.8365 23.101L19.392 22.872ZM16.384 26.136L16.6444 26.5628L16.6464 26.5616L16.384 26.136ZM8.544 26.488L8.31676 26.9334L8.32039 26.9352L8.544 26.488ZM6.048 24.44L6.44923 24.1416L5.548 22.9296V24.44H6.048ZM6.048 27V27.5H6.548V27H6.048ZM2.4 27H1.9V27.5H2.4V27ZM2.4 3.32V2.82H1.9V3.32H2.4ZM6.048 3.32H6.548V2.82H6.048V3.32ZM16 14.968L15.5615 15.2082L15.5649 15.2144L15.5685 15.2206L16 14.968ZM14.016 12.952L13.7655 13.3847L13.7722 13.3886L13.779 13.3922L14.016 12.952ZM8.768 12.952L8.52232 12.5165L8.51748 12.5193L8.768 12.952ZM6.784 15L6.34981 14.7519L6.34545 14.7598L6.784 15ZM6.784 21.368L6.34294 21.6039L6.34988 21.6161L6.784 21.368ZM8.768 23.416L8.51747 23.8487L8.52234 23.8515L8.768 23.416ZM14.016 23.416L14.2665 23.8487L14.27 23.8467L14.016 23.416ZM16 21.304L15.5633 21.0603L15.5591 21.0682L16 21.304ZM6.45281 12.2855C7.01841 11.5053 7.79527 10.8614 8.79961 10.3592L8.35239 9.46479C7.2234 10.0293 6.31492 10.772 5.6432 11.6985L6.45281 12.2855ZM8.80309 10.3575C9.81503 9.84156 10.9416 9.58 12.192 9.58V8.58C10.7971 8.58 9.51297 8.8731 8.34891 9.46655L8.80309 10.3575ZM12.192 9.58C13.6655 9.58 14.9844 9.93212 16.1609 10.63L16.6711 9.76997C15.3302 8.97454 13.8331 8.58 12.192 8.58V9.58ZM16.1609 10.63C17.3341 11.326 18.2635 12.3214 18.949 13.6317L19.835 13.1683C19.0698 11.7053 18.0152 10.5673 16.6711 9.76997L16.1609 10.63ZM18.9504 13.6346C19.6321 14.9178 19.98 16.4031 19.98 18.104H20.98C20.98 16.2635 20.6025 14.6129 19.8336 13.1654L18.9504 13.6346ZM19.98 18.104C19.98 19.8045 19.6322 21.3138 18.9475 22.643L19.8365 23.101C20.6024 21.6142 20.98 19.9448 20.98 18.104H19.98ZM18.949 22.6403C18.2635 23.9506 17.3218 24.9702 16.1216 25.7104L16.6464 26.5616C18.0062 25.7231 19.0698 24.5667 19.835 23.1037L18.949 22.6403ZM16.1236 25.7092C14.9467 26.4273 13.6401 26.788 12.192 26.788V27.788C13.8159 27.788 15.304 27.3807 16.6444 26.5628L16.1236 25.7092ZM12.192 26.788C10.893 26.788 9.75541 26.5347 8.76761 26.0408L8.32039 26.9352C9.46593 27.508 10.7603 27.788 12.192 27.788V26.788ZM8.77124 26.0426C7.78534 25.5396 7.01626 24.9042 6.44923 24.1416L5.64677 24.7384C6.31708 25.6398 7.21199 26.3697 8.31677 26.9334L8.77124 26.0426ZM5.548 24.44V27H6.548V24.44H5.548ZM6.048 26.5H2.4V27.5H6.048V26.5ZM2.9 27V3.32H1.9V27H2.9ZM2.4 3.82H6.048V2.82H2.4V3.82ZM5.548 3.32V11.992H6.548V3.32H5.548ZM17.268 18.104C17.268 16.817 16.9966 15.6807 16.4315 14.7154L15.5685 15.2206C16.0274 16.0046 16.268 16.959 16.268 18.104H17.268ZM16.4385 14.7278C15.9054 13.7542 15.1771 13.0093 14.2531 12.5118L13.779 13.3922C14.5189 13.7907 15.1133 14.3897 15.5615 15.2082L16.4385 14.7278ZM14.2665 12.5193C13.3796 12.0058 12.4184 11.748 11.392 11.748V12.748C12.2429 12.748 13.0311 12.9596 13.7655 13.3847L14.2665 12.5193ZM11.392 11.748C10.385 11.748 9.42608 12.0067 8.52234 12.5165L9.01366 13.3875C9.77392 12.9586 10.5644 12.748 11.392 12.748V11.748ZM8.51748 12.5193C7.62277 13.0373 6.90112 13.7873 6.34988 14.7519L7.21812 15.2481C7.69088 14.4207 8.29189 13.8054 9.01852 13.3847L8.51748 12.5193ZM6.34545 14.7598C5.80744 15.7423 5.548 16.884 5.548 18.168H6.548C6.548 17.02 6.77923 16.0497 7.22255 15.2402L6.34545 14.7598ZM5.548 18.168C5.548 19.4523 5.80756 20.6026 6.34311 21.6038L7.22489 21.1322C6.77911 20.2988 6.548 19.3157 6.548 18.168H5.548ZM6.34988 21.6161C6.90112 22.5807 7.62277 23.3307 8.51748 23.8487L9.01852 22.9833C8.29189 22.5626 7.69088 21.9473 7.21812 21.1199L6.34988 21.6161ZM8.52234 23.8515C9.42608 24.3613 10.385 24.62 11.392 24.62V23.62C10.5644 23.62 9.77392 23.4094 9.01366 22.9805L8.52234 23.8515ZM11.392 24.62C12.4184 24.62 13.3796 24.3622 14.2665 23.8487L13.7655 22.9833C13.0311 23.4084 12.2429 23.62 11.392 23.62V24.62ZM14.27 23.8467C15.1871 23.3058 15.9104 22.5316 16.4409 21.5398L15.5591 21.0682C15.1082 21.9111 14.5089 22.5448 13.762 22.9853L14.27 23.8467ZM16.4366 21.5477C16.9963 20.5449 17.268 19.3917 17.268 18.104H16.268C16.268 19.2483 16.0277 20.2285 15.5634 21.0603L16.4366 21.5477Z" fill="#181818" mask="url(#path-3-outside-2_17_2)"/>
<mask id="path-5-outside-3_17_2" maskUnits="userSpaceOnUse" x="36" y="21" width="6" height="6" fill="black">
<rect fill="white" x="36" y="21" width="6" height="6"/>
<path d="M37.3438 24.375C37.3438 23.6458 37.5208 23.1302 37.875 22.8281C38.2292 22.5156 38.6615 22.3594 39.1719 22.3594C39.7031 22.3594 40.151 22.5156 40.5156 22.8281C40.8802 23.1302 41.0625 23.6458 41.0625 24.375C41.0625 25.0938 40.8802 25.6198 40.5156 25.9531C40.151 26.276 39.7031 26.4375 39.1719 26.4375C38.6615 26.4375 38.2292 26.276 37.875 25.9531C37.5208 25.6198 37.3438 25.0938 37.3438 24.375Z"/>
</mask>
<path d="M37.3438 24.375C37.3438 23.6458 37.5208 23.1302 37.875 22.8281C38.2292 22.5156 38.6615 22.3594 39.1719 22.3594C39.7031 22.3594 40.151 22.5156 40.5156 22.8281C40.8802 23.1302 41.0625 23.6458 41.0625 24.375C41.0625 25.0938 40.8802 25.6198 40.5156 25.9531C40.151 26.276 39.7031 26.4375 39.1719 26.4375C38.6615 26.4375 38.2292 26.276 37.875 25.9531C37.5208 25.6198 37.3438 25.0938 37.3438 24.375Z" fill="#181818"/>
<path d="M37.875 22.8281L38.1995 23.2086L38.2058 23.203L37.875 22.8281ZM40.5156 22.8281L40.1902 23.2078L40.1966 23.2131L40.5156 22.8281ZM40.5156 25.9531L40.8472 26.3275L40.853 26.3221L40.5156 25.9531ZM37.875 25.9531L37.5323 26.3173L37.5381 26.3226L37.875 25.9531ZM37.8438 24.375C37.8438 23.7096 38.007 23.3727 38.1995 23.2085L37.5505 22.4477C37.0346 22.8877 36.8438 23.582 36.8438 24.375H37.8438ZM38.2058 23.203C38.4609 22.9779 38.7726 22.8594 39.1719 22.8594V21.8594C38.5503 21.8594 37.9974 22.0533 37.5442 22.4532L38.2058 23.203ZM39.1719 22.8594C39.5974 22.8594 39.9261 22.9813 40.1902 23.2078L40.841 22.4485C40.376 22.0499 39.8089 21.8594 39.1719 21.8594V22.8594ZM40.1966 23.2131C40.3961 23.3784 40.5625 23.7137 40.5625 24.375H41.5625C41.5625 23.578 41.3643 22.882 40.8346 22.4431L40.1966 23.2131ZM40.5625 24.375C40.5625 25.0182 40.3995 25.3818 40.1782 25.5841L40.853 26.3221C41.3609 25.8578 41.5625 25.1693 41.5625 24.375H40.5625ZM40.1841 25.5788C39.9196 25.8131 39.593 25.9375 39.1719 25.9375V26.9375C39.8133 26.9375 40.3825 26.7389 40.8471 26.3274L40.1841 25.5788ZM39.1719 25.9375C38.7772 25.9375 38.4676 25.8168 38.2119 25.5836L37.5381 26.3226C37.9907 26.7353 38.5457 26.9375 39.1719 26.9375V25.9375ZM38.2177 25.589C38.0036 25.3875 37.8438 25.022 37.8438 24.375H36.8438C36.8438 25.1655 37.0381 25.8521 37.5323 26.3172L38.2177 25.589Z" fill="#181818" mask="url(#path-5-outside-3_17_2)"/>
</svg>
