<svg width="133" height="267" viewBox="0 0 133 267" fill="none" xmlns="http://www.w3.org/2000/svg">
<g clip-path="url(#clip0_1_22)">
<mask id="mask0_1_22" style="mask-type:luminance" maskUnits="userSpaceOnUse" x="0" y="0" width="133" height="267">
<path d="M0.5 0.5H131.849V265.609H0.5V0.5Z" fill="white" stroke="white"/>
</mask>
<g mask="url(#mask0_1_22)">
<path d="M82.9146 3.67686C81.8936 2.49887 80.6137 1.48753 79.2405 0.777296C81.4189 1.25231 83.4655 2.32747 85.154 3.92036C89.2567 8.02799 90.2218 14.8018 86.372 19.1601C83.9744 21.7185 80.2947 22.1792 76.4455 21.5267C72.6068 20.8761 68.7294 19.1354 66.1172 17.4811C64.1364 16.2206 61.585 15.0287 59.0697 14.7287C56.533 14.4262 53.9895 15.0321 52.172 17.4236L52.1701 17.4261C49.9112 20.4379 49.9776 24.137 51.384 27.2495C52.7867 30.3537 55.5525 32.9511 58.8196 33.7913L58.8228 33.7921C61.7403 34.5214 64.6903 34.3811 67.5839 34.2044C67.7351 34.1952 67.8861 34.1859 68.0369 34.1765C70.7964 34.0061 73.5039 33.8388 76.206 34.3302L76.2105 34.3309C80.9598 35.1497 85.9299 37.1832 88.9248 41.0777C84.5933 38.164 79.5568 37.7057 74.4662 37.8533C72.7132 37.9041 70.9138 38.0295 69.1316 38.1537C67.8201 38.2452 66.5179 38.3359 65.2502 38.3959C62.2197 38.5391 59.2929 38.5145 56.5663 37.9519L56.5648 37.9516C45.5838 35.7211 40.2166 23.5163 44.7048 13.5042L44.7048 13.5042L44.707 13.4991C46.4122 9.57712 49.1956 7.65492 52.3888 7.10873C55.6135 6.55713 59.3098 7.40206 62.7927 9.1435C63.9381 9.7162 65.202 10.5031 66.5643 11.3513C66.8554 11.5325 67.151 11.7166 67.451 11.902C69.1397 12.9456 70.9492 14.0203 72.7798 14.8C74.6087 15.5789 76.4973 16.0808 78.3414 15.9424C80.2037 15.8025 81.9799 15.0123 83.5673 13.2856C84.956 11.8003 85.4077 10.0793 85.1906 8.37845C84.9756 6.69494 84.1108 5.05716 82.9146 3.67686ZM22.9681 72.2097L22.9233 71.7592H22.4706H14.149C13.9971 71.7592 13.9093 71.7107 13.8608 71.6622C13.8123 71.6137 13.7638 71.5259 13.7638 71.3739V64.1147C13.7638 63.9627 13.8123 63.8749 13.8608 63.8264C13.9093 63.7779 13.9971 63.7294 14.149 63.7294H118.258C118.29 63.7294 118.398 63.7566 118.504 63.8491C118.6 63.9333 118.643 64.0264 118.643 64.1147V71.3739C118.643 71.5259 118.595 71.6137 118.546 71.6623C118.498 71.7108 118.41 71.7592 118.258 71.7592H109.936H109.483L109.438 72.2097L99.5292 171.833C99.374 172.268 99.1438 172.504 98.7816 172.504H33.6251C33.1424 172.504 32.8858 172.149 32.8858 171.941V171.916L32.8833 171.892L22.9681 72.2097ZM93.4699 166.245H93.9223L93.9674 165.795L103.352 72.132L103.407 71.5822H102.854H29.5529H29.0003L29.0554 72.132L38.4393 165.795L38.4844 166.245H38.9368H93.4699ZM107.779 51.6886L107.795 51.6896H107.811C107.824 51.6896 107.889 51.7002 107.995 51.7908C108.079 51.8623 108.158 51.9594 108.217 52.0609L109.435 59.5463C109.428 59.6944 109.375 59.8359 109.298 59.9347C109.219 60.0359 109.134 60.0736 109.051 60.0736H23.3559H23.2748L23.1978 60.0993C23.1414 60.118 23.0797 60.1078 23.0214 60.0422C22.963 59.9765 22.9039 59.8398 22.9557 59.6325C22.9557 59.6325 22.9557 59.6324 22.9557 59.6324L26.128 46.9431C26.1885 46.8353 26.2713 46.7314 26.3593 46.6559C26.4522 46.5763 26.514 46.5586 26.5361 46.5556L107.779 51.6886Z" fill="#7DD856" stroke="black"/>
<path d="M78.0851 101.885L78.085 101.885L78.0738 101.889C73.5681 103.51 66.1057 107.686 64.4705 117.86C62.9266 127.292 55.2259 130.571 51.7305 131.621C51.2601 131.733 50.5848 131.5 50.1521 130.939C46.6199 125.017 48.7681 115.367 56.1107 108.024L56.1107 108.024L56.1151 108.019C62.9196 101.04 72.056 98.6968 77.9894 101.552C78.1078 101.64 78.1415 101.746 78.1415 101.805C78.1415 101.836 78.1334 101.852 78.1295 101.858L78.1294 101.858C78.1272 101.861 78.1187 101.873 78.0851 101.885Z" fill="#7DD856" stroke="black"/>
<path d="M62.4847 129.271L62.4847 129.271C65.0272 126.728 67.2102 123.27 67.9368 118.37C69.4847 108.749 77.2072 105.477 80.495 104.613L80.5248 104.605L80.5534 104.593C81.1746 104.345 81.8146 104.561 82.2408 105.271C85.7924 111.191 83.6481 120.858 76.296 128.209L76.296 128.209L76.2916 128.214C69.4871 135.193 60.3507 137.537 54.4173 134.681C54.2987 134.593 54.2652 134.487 54.2652 134.428C54.2652 134.397 54.2733 134.382 54.2771 134.376L54.2772 134.376C54.2793 134.373 54.2872 134.362 54.3179 134.351C56.6938 133.617 59.7719 131.983 62.4847 129.271Z" fill="#7DD856" stroke="black"/>
<mask id="path-5-inside-1_1_22" fill="white">
<path d="M18.5846 236.8C12.5334 236.8 7.92299 235.117 4.75357 231.751C1.58414 228.386 -0.000384383 223.605 6.99429e-08 217.409C6.99429e-08 214.33 0.483449 211.582 1.45035 209.165C2.41725 206.748 3.74207 204.706 5.42482 203.041C7.10757 201.376 9.11287 200.114 11.4407 199.255C13.7686 198.396 16.2931 197.966 19.0143 197.965C20.5901 197.965 22.0226 198.082 23.3117 198.315C24.6007 198.548 25.7287 198.816 26.6956 199.121C27.6625 199.425 28.4681 199.738 29.1125 200.061C29.7568 200.383 30.2224 200.634 30.5092 200.813L28.0918 207.58C26.9461 206.971 25.6122 206.452 24.0902 206.023C22.5681 205.593 20.8404 205.379 18.907 205.378C17.6179 205.378 16.3558 205.593 15.1205 206.023C13.8853 206.453 12.793 207.142 11.8438 208.091C10.8946 209.04 10.1336 210.266 9.56076 211.77C8.98793 213.274 8.70151 215.1 8.70151 217.248C8.70151 218.967 8.88951 220.57 9.2655 222.056C9.6415 223.543 10.2503 224.823 11.0918 225.897C11.9334 226.971 13.0345 227.821 14.3951 228.448C15.7556 229.074 17.403 229.387 19.3372 229.388C20.5544 229.388 21.6462 229.316 22.6127 229.173C23.5793 229.03 24.4389 228.86 25.1916 228.663C25.9444 228.465 26.6068 228.242 27.1789 227.991C27.7509 227.741 28.2702 227.508 28.7365 227.293L31.0461 234.007C29.8643 234.723 28.1992 235.368 26.0509 235.941C23.9026 236.514 21.4138 236.801 18.5846 236.8ZM61.3402 236.048C60.9465 234.759 60.5079 233.434 60.0242 232.073C59.5406 230.712 59.0662 229.352 58.601 227.991H44.0986C43.6331 229.352 43.1585 230.713 42.6748 232.073C42.1912 233.433 41.7525 234.758 41.3588 236.048H32.6573C34.0541 232.038 35.3791 228.331 36.6324 224.93C37.8857 221.528 39.1121 218.323 40.3116 215.315C41.5111 212.307 42.6929 209.451 43.857 206.748C45.0211 204.045 46.2297 201.404 47.4826 198.825H55.4858C56.7033 201.403 57.9028 204.044 59.0842 206.748C60.2657 209.451 61.4563 212.307 62.6562 215.315C63.8561 218.323 65.0825 221.528 66.3354 224.93C67.5883 228.332 68.9133 232.038 70.3104 236.048H61.3402ZM51.2962 207.258C51.117 207.795 50.8485 208.529 50.4906 209.46C50.1326 210.392 49.7207 211.466 49.2547 212.683C48.7888 213.9 48.2786 215.243 47.7242 216.712C47.1698 218.18 46.6059 219.72 46.0322 221.331H56.6137C56.0409 219.72 55.4857 218.18 54.9483 216.712C54.4108 215.243 53.9007 213.9 53.4178 212.683C52.9349 211.465 52.5141 210.391 52.1554 209.46C51.7967 208.53 51.5103 207.796 51.2962 207.258ZM75.1447 236.048V198.825H100.068V205.861H83.5239V213.65H98.2407V220.686H83.5239V236.048H75.1447ZM105.976 236.048V198.825H131.113V205.861H114.355V213.167H129.234V220.042H114.355V229.012H132.35V236.048H105.976ZM125.312 189.049L116.45 196.515L112.797 193.239L120.424 184.537L125.312 189.049ZM14.1996 242.782H19.4992V266.324H14.1996V256.336H5.2991V266.324H6.99429e-08V242.782H5.29968V251.784H14.2001L14.1996 242.782ZM24.9339 266.324V242.782H40.8323V247.232H30.233V251.853H39.6432V256.201H30.2336V261.874H41.6132V266.324H24.9339ZM61.2485 261.772V266.324H45.5202V242.782H50.8198V261.772H61.2485ZM64.6451 266.324V242.782H80.5442V247.232H69.9448V251.853H79.3545V256.201H69.9454V261.874H81.3256V266.324H64.6451ZM101.028 266.324C99.5104 263.629 97.8684 260.968 96.1018 258.341C94.3353 255.714 92.4557 253.234 90.4631 250.902V266.324H85.2314V242.782H89.5456C90.2929 243.529 91.1195 244.447 92.0253 245.534C92.9311 246.621 93.8541 247.782 94.7945 249.016C95.7349 250.25 96.6691 251.53 97.5972 252.854C98.5252 254.179 99.397 255.453 100.212 256.676V242.782H105.477V266.324H101.028ZM126.676 266.324C126.427 265.509 126.149 264.671 125.843 263.81C125.538 262.948 125.238 262.088 124.943 261.228H115.771C115.477 262.089 115.177 262.949 114.871 263.81C114.565 264.671 114.288 265.509 114.038 266.324H108.535C109.419 263.787 110.257 261.443 111.049 259.292C111.842 257.14 112.618 255.114 113.376 253.211C114.135 251.309 114.882 249.503 115.618 247.793C116.355 246.083 117.119 244.413 117.911 242.782H122.973C123.743 244.413 124.502 246.083 125.249 247.793C125.996 249.503 126.749 251.309 127.508 253.211C128.266 255.113 129.042 257.14 129.835 259.292C130.627 261.444 131.466 263.788 132.349 266.324H126.676ZM120.323 248.116C120.21 248.455 120.04 248.92 119.814 249.508C119.587 250.097 119.327 250.777 119.032 251.546C118.738 252.316 118.415 253.165 118.063 254.094C117.712 255.023 117.356 255.997 116.994 257.016H123.686C123.324 255.997 122.973 255.023 122.633 254.094C122.294 253.165 121.971 252.316 121.665 251.546C121.359 250.777 121.093 250.097 120.867 249.508C120.641 248.92 120.459 248.455 120.323 248.116Z"/>
</mask>
<path d="M18.5846 236.8C12.5334 236.8 7.92299 235.117 4.75357 231.751C1.58414 228.386 -0.000384383 223.605 6.99429e-08 217.409C6.99429e-08 214.33 0.483449 211.582 1.45035 209.165C2.41725 206.748 3.74207 204.706 5.42482 203.041C7.10757 201.376 9.11287 200.114 11.4407 199.255C13.7686 198.396 16.2931 197.966 19.0143 197.965C20.5901 197.965 22.0226 198.082 23.3117 198.315C24.6007 198.548 25.7287 198.816 26.6956 199.121C27.6625 199.425 28.4681 199.738 29.1125 200.061C29.7568 200.383 30.2224 200.634 30.5092 200.813L28.0918 207.58C26.9461 206.971 25.6122 206.452 24.0902 206.023C22.5681 205.593 20.8404 205.379 18.907 205.378C17.6179 205.378 16.3558 205.593 15.1205 206.023C13.8853 206.453 12.793 207.142 11.8438 208.091C10.8946 209.04 10.1336 210.266 9.56076 211.77C8.98793 213.274 8.70151 215.1 8.70151 217.248C8.70151 218.967 8.88951 220.57 9.2655 222.056C9.6415 223.543 10.2503 224.823 11.0918 225.897C11.9334 226.971 13.0345 227.821 14.3951 228.448C15.7556 229.074 17.403 229.387 19.3372 229.388C20.5544 229.388 21.6462 229.316 22.6127 229.173C23.5793 229.03 24.4389 228.86 25.1916 228.663C25.9444 228.465 26.6068 228.242 27.1789 227.991C27.7509 227.741 28.2702 227.508 28.7365 227.293L31.0461 234.007C29.8643 234.723 28.1992 235.368 26.0509 235.941C23.9026 236.514 21.4138 236.801 18.5846 236.8ZM61.3402 236.048C60.9465 234.759 60.5079 233.434 60.0242 232.073C59.5406 230.712 59.0662 229.352 58.601 227.991H44.0986C43.6331 229.352 43.1585 230.713 42.6748 232.073C42.1912 233.433 41.7525 234.758 41.3588 236.048H32.6573C34.0541 232.038 35.3791 228.331 36.6324 224.93C37.8857 221.528 39.1121 218.323 40.3116 215.315C41.5111 212.307 42.6929 209.451 43.857 206.748C45.0211 204.045 46.2297 201.404 47.4826 198.825H55.4858C56.7033 201.403 57.9028 204.044 59.0842 206.748C60.2657 209.451 61.4563 212.307 62.6562 215.315C63.8561 218.323 65.0825 221.528 66.3354 224.93C67.5883 228.332 68.9133 232.038 70.3104 236.048H61.3402ZM51.2962 207.258C51.117 207.795 50.8485 208.529 50.4906 209.46C50.1326 210.392 49.7207 211.466 49.2547 212.683C48.7888 213.9 48.2786 215.243 47.7242 216.712C47.1698 218.18 46.6059 219.72 46.0322 221.331H56.6137C56.0409 219.72 55.4857 218.18 54.9483 216.712C54.4108 215.243 53.9007 213.9 53.4178 212.683C52.9349 211.465 52.5141 210.391 52.1554 209.46C51.7967 208.53 51.5103 207.796 51.2962 207.258ZM75.1447 236.048V198.825H100.068V205.861H83.5239V213.65H98.2407V220.686H83.5239V236.048H75.1447ZM105.976 236.048V198.825H131.113V205.861H114.355V213.167H129.234V220.042H114.355V229.012H132.35V236.048H105.976ZM125.312 189.049L116.45 196.515L112.797 193.239L120.424 184.537L125.312 189.049ZM14.1996 242.782H19.4992V266.324H14.1996V256.336H5.2991V266.324H6.99429e-08V242.782H5.29968V251.784H14.2001L14.1996 242.782ZM24.9339 266.324V242.782H40.8323V247.232H30.233V251.853H39.6432V256.201H30.2336V261.874H41.6132V266.324H24.9339ZM61.2485 261.772V266.324H45.5202V242.782H50.8198V261.772H61.2485ZM64.6451 266.324V242.782H80.5442V247.232H69.9448V251.853H79.3545V256.201H69.9454V261.874H81.3256V266.324H64.6451ZM101.028 266.324C99.5104 263.629 97.8684 260.968 96.1018 258.341C94.3353 255.714 92.4557 253.234 90.4631 250.902V266.324H85.2314V242.782H89.5456C90.2929 243.529 91.1195 244.447 92.0253 245.534C92.9311 246.621 93.8541 247.782 94.7945 249.016C95.7349 250.25 96.6691 251.53 97.5972 252.854C98.5252 254.179 99.397 255.453 100.212 256.676V242.782H105.477V266.324H101.028ZM126.676 266.324C126.427 265.509 126.149 264.671 125.843 263.81C125.538 262.948 125.238 262.088 124.943 261.228H115.771C115.477 262.089 115.177 262.949 114.871 263.81C114.565 264.671 114.288 265.509 114.038 266.324H108.535C109.419 263.787 110.257 261.443 111.049 259.292C111.842 257.14 112.618 255.114 113.376 253.211C114.135 251.309 114.882 249.503 115.618 247.793C116.355 246.083 117.119 244.413 117.911 242.782H122.973C123.743 244.413 124.502 246.083 125.249 247.793C125.996 249.503 126.749 251.309 127.508 253.211C128.266 255.113 129.042 257.14 129.835 259.292C130.627 261.444 131.466 263.788 132.349 266.324H126.676ZM120.323 248.116C120.21 248.455 120.04 248.92 119.814 249.508C119.587 250.097 119.327 250.777 119.032 251.546C118.738 252.316 118.415 253.165 118.063 254.094C117.712 255.023 117.356 255.997 116.994 257.016H123.686C123.324 255.997 122.973 255.023 122.633 254.094C122.294 253.165 121.971 252.316 121.665 251.546C121.359 250.777 121.093 250.097 120.867 249.508C120.641 248.92 120.459 248.455 120.323 248.116Z" fill="white" stroke="black" stroke-width="2" mask="url(#path-5-inside-1_1_22)"/>
</g>
</g>
<defs>
<clipPath id="clip0_1_22">
<rect width="133" height="267" fill="white"/>
</clipPath>
</defs>
</svg>
