<svg width="133" height="267" viewBox="0 0 133 267" fill="none" xmlns="http://www.w3.org/2000/svg">
<g clip-path="url(#clip0_0_3)">
<path d="M89.9288 41.6286C86.9188 37.0252 81.4301 34.7234 76.2955 33.8382C70.4527 32.7758 64.6099 34.7234 58.9441 33.307C52.7471 31.7135 48.3207 23.3919 52.5701 17.7261C55.9341 13.2997 61.954 15.4244 65.8492 17.9032C71.1609 21.2672 81.6072 24.9854 86.7418 19.4967C90.8141 14.8932 89.7517 7.81102 85.5024 3.56169C82.3154 0.551742 77.889 -0.687646 73.6397 0.374687C79.4825 -1.21881 88.3353 7.45691 83.2007 12.9456C77.1808 19.4967 68.6821 11.5292 63.0163 8.69629C55.9341 5.15518 47.7896 5.15518 44.2485 13.2997C39.645 23.569 45.1337 36.1399 56.4653 38.4416C67.6198 40.7433 81.7842 34.1923 91.1682 43.5762L89.9288 41.6286ZM118.258 63.2294H14.149C13.6179 63.2294 13.2638 63.5835 13.2638 64.1147V71.3739C13.2638 71.9051 13.6179 72.2592 14.149 72.2592H22.4706L32.3858 171.941C32.3858 172.473 32.9169 173.004 33.6251 173.004H98.7816C99.4898 173.004 99.8439 172.473 100.021 171.941L109.936 72.2592H118.258C118.789 72.2592 119.143 71.9051 119.143 71.3739V64.1147C119.143 63.5835 118.612 63.2294 118.258 63.2294ZM93.4699 165.745H38.9368L29.5529 72.0822H102.854L93.4699 165.745ZM22.4706 59.5112L25.6576 46.7632C25.8347 46.4091 26.1888 46.055 26.5429 46.055L107.811 51.1896C108.165 51.1896 108.52 51.5437 108.697 51.8978L109.936 59.5112C109.936 60.0424 109.582 60.5736 109.051 60.5736H23.3559C22.8248 60.7506 22.2936 60.2194 22.4706 59.5112Z" fill="#7DD856"/>
<path d="M64.964 117.94C66.5574 108.024 73.8167 103.952 78.2431 102.359C78.7743 102.182 78.7743 101.473 78.2431 101.119C72.0462 98.1093 62.6622 100.588 55.7571 107.67C48.3207 115.107 46.019 125.022 49.7372 131.219C50.2684 131.927 51.1536 132.281 51.8619 132.104C55.403 131.042 63.3705 127.678 64.964 117.94Z" fill="#7DD856"/>
<path d="M67.4427 118.294C66.7345 123.074 64.6098 126.438 62.1311 128.917C59.4752 131.573 56.4653 133.166 54.1636 133.875C53.6324 134.052 53.6324 134.76 54.1636 135.114C60.3605 138.124 69.7445 135.645 76.6496 128.563C84.0859 121.127 86.3877 111.211 82.6695 105.014C82.1383 104.129 81.2531 103.775 80.3678 104.129C77.0037 105.014 69.0362 108.379 67.4427 118.294Z" fill="#7DD856"/>
<path d="M18.5846 236.8C12.5334 236.8 7.92299 235.117 4.75357 231.751C1.58414 228.386 -0.000384383 223.605 6.99429e-08 217.409C6.99429e-08 214.33 0.483449 211.582 1.45035 209.165C2.41725 206.748 3.74207 204.706 5.42482 203.041C7.10757 201.376 9.11287 200.114 11.4407 199.255C13.7686 198.396 16.2931 197.966 19.0143 197.965C20.5901 197.965 22.0226 198.082 23.3117 198.315C24.6007 198.548 25.7287 198.816 26.6956 199.121C27.6625 199.425 28.4681 199.738 29.1125 200.061C29.7568 200.383 30.2224 200.634 30.5092 200.813L28.0918 207.58C26.9461 206.971 25.6122 206.452 24.0902 206.023C22.5681 205.593 20.8404 205.379 18.907 205.378C17.6179 205.378 16.3558 205.593 15.1205 206.023C13.8853 206.453 12.793 207.142 11.8438 208.091C10.8946 209.04 10.1336 210.266 9.56076 211.77C8.98793 213.274 8.70151 215.1 8.70151 217.248C8.70151 218.967 8.88951 220.57 9.2655 222.056C9.6415 223.543 10.2503 224.823 11.0918 225.897C11.9334 226.971 13.0345 227.821 14.3951 228.448C15.7556 229.074 17.403 229.387 19.3372 229.388C20.5544 229.388 21.6462 229.316 22.6127 229.173C23.5793 229.03 24.4389 228.86 25.1916 228.663C25.9444 228.465 26.6068 228.242 27.1789 227.991C27.7509 227.741 28.2702 227.508 28.7365 227.293L31.0461 234.007C29.8643 234.723 28.1992 235.368 26.0509 235.941C23.9026 236.514 21.4138 236.801 18.5846 236.8ZM61.3402 236.048C60.9465 234.759 60.5079 233.434 60.0242 232.073C59.5406 230.712 59.0662 229.352 58.601 227.991H44.0986C43.6331 229.352 43.1585 230.713 42.6748 232.073C42.1912 233.433 41.7525 234.758 41.3588 236.048H32.6573C34.0541 232.038 35.3791 228.331 36.6324 224.93C37.8857 221.528 39.1121 218.323 40.3116 215.315C41.5111 212.307 42.6929 209.451 43.857 206.748C45.0211 204.045 46.2297 201.404 47.4826 198.825H55.4858C56.7033 201.403 57.9028 204.044 59.0842 206.748C60.2657 209.451 61.4563 212.307 62.6562 215.315C63.8561 218.323 65.0825 221.528 66.3354 224.93C67.5883 228.332 68.9133 232.038 70.3104 236.048H61.3402ZM51.2962 207.258C51.117 207.795 50.8485 208.529 50.4906 209.46C50.1326 210.392 49.7207 211.466 49.2547 212.683C48.7888 213.9 48.2786 215.243 47.7242 216.712C47.1698 218.18 46.6059 219.72 46.0322 221.331H56.6137C56.0409 219.72 55.4857 218.18 54.9483 216.712C54.4108 215.243 53.9007 213.9 53.4178 212.683C52.9349 211.465 52.5141 210.391 52.1554 209.46C51.7967 208.53 51.5103 207.796 51.2962 207.258ZM75.1447 236.048V198.825H100.068V205.861H83.5239V213.65H98.2407V220.686H83.5239V236.048H75.1447ZM105.976 236.048V198.825H131.113V205.861H114.355V213.167H129.234V220.042H114.355V229.012H132.35V236.048H105.976H105.976ZM125.312 189.049L116.45 196.515L112.797 193.239L120.424 184.537L125.312 189.049ZM14.1996 242.782H19.4992V266.324H14.1996V256.336H5.2991V266.324H6.99429e-08V242.782H5.29968V251.784H14.2001V242.782H14.1996ZM24.9339 266.324V242.782H40.8323V247.232H30.233V251.853H39.6432V256.201H30.2336V261.874H41.6132V266.324H24.9339ZM61.2485 261.772V266.324H45.5202V242.782H50.8198V261.772H61.2485V261.772ZM64.6451 266.324V242.782H80.5442V247.232H69.9448V251.853H79.3545V256.201H69.9454V261.874H81.3256V266.324H64.6451ZM101.028 266.324C99.5104 263.629 97.8684 260.968 96.1018 258.341C94.3353 255.714 92.4557 253.234 90.4631 250.902V266.324H85.2314V242.782H89.5456C90.2929 243.529 91.1195 244.447 92.0253 245.534C92.9311 246.621 93.8541 247.782 94.7945 249.016C95.7349 250.25 96.6691 251.53 97.5972 252.854C98.5252 254.179 99.397 255.453 100.212 256.676V242.782H105.477V266.324H101.028ZM126.676 266.324C126.427 265.509 126.149 264.671 125.843 263.81C125.538 262.948 125.238 262.088 124.943 261.228H115.771C115.477 262.089 115.177 262.949 114.871 263.81C114.565 264.671 114.288 265.509 114.038 266.324H108.535C109.419 263.787 110.257 261.443 111.049 259.292C111.842 257.14 112.618 255.114 113.376 253.211C114.135 251.309 114.882 249.503 115.618 247.793C116.355 246.083 117.119 244.413 117.911 242.782H122.973C123.743 244.413 124.502 246.083 125.249 247.793C125.996 249.503 126.749 251.309 127.508 253.211C128.266 255.113 129.042 257.14 129.835 259.292C130.627 261.444 131.466 263.788 132.349 266.324H126.676ZM120.323 248.116C120.21 248.455 120.04 248.92 119.814 249.508C119.587 250.097 119.327 250.777 119.032 251.546C118.738 252.316 118.415 253.165 118.063 254.094C117.712 255.023 117.356 255.997 116.994 257.016H123.686C123.324 255.997 122.973 255.023 122.633 254.094C122.294 253.165 121.971 252.316 121.665 251.546C121.359 250.777 121.093 250.097 120.867 249.508C120.641 248.92 120.459 248.455 120.323 248.116Z" fill="white"/>
</g>
<defs>
<clipPath id="clip0_0_3">
<rect width="132.349" height="266.109" fill="white"/>
</clipPath>
</defs>
</svg>
