<svg width="346" height="213" viewBox="0 0 346 213" fill="none" xmlns="http://www.w3.org/2000/svg">
<g clip-path="url(#clip0_2_6)">
<path d="M336.738 0H8.86154C3.96745 0 0 3.96745 0 8.86154V203.815C0 208.709 3.96745 212.677 8.86154 212.677H336.738C341.633 212.677 345.6 208.709 345.6 203.815V8.86154C345.6 3.96745 341.633 0 336.738 0Z" fill="#111111"/>
<path d="M228.881 66.1458L228.081 62.6831C228.076 62.6635 228.063 62.6505 228.058 62.6323C228.043 62.59 228.024 62.5491 228.002 62.5101C227.981 62.4763 227.963 62.4438 227.937 62.4139C227.909 62.3815 227.877 62.3523 227.842 62.3268C227.78 62.2736 227.707 62.2357 227.628 62.2162C227.587 62.2028 227.545 62.1941 227.503 62.1902C227.483 62.1889 227.466 62.1785 227.447 62.1785H209.095L211.745 40.2616C211.749 40.2343 211.74 40.2108 211.74 40.1835C211.74 40.1562 211.749 40.1315 211.745 40.1042L211.497 38.0432L211.487 38.0146C211.479 37.973 211.461 37.934 211.446 37.8911C211.429 37.8508 211.418 37.8104 211.394 37.774C211.388 37.7662 211.388 37.7558 211.383 37.7467L210.176 36.0355C210.169 36.0277 210.16 36.0238 210.155 36.016C210.128 35.9809 210.091 35.9523 210.056 35.9237C210.025 35.8964 209.996 35.8691 209.963 35.8483C209.952 35.8431 209.947 35.834 209.937 35.8288L208.093 34.8938C208.005 34.8512 207.908 34.8294 207.811 34.8301L207.783 34.8236L205.698 34.8743C205.688 34.8743 205.681 34.8795 205.672 34.8808C205.629 34.8834 205.587 34.8977 205.543 34.9094C205.501 34.9211 205.46 34.9302 205.421 34.9484C205.411 34.9523 205.401 34.9523 205.393 34.9575L203.575 35.9822L203.57 35.9861L203.566 35.9874L189.476 44.2158C189.449 44.2315 189.434 44.2549 189.41 44.2744C189.376 44.3017 189.342 44.3264 189.315 44.3589C189.287 44.3901 189.267 44.4265 189.246 44.4629C189.225 44.4976 189.207 44.5341 189.193 44.5721C189.181 44.6112 189.173 44.6512 189.169 44.6918C189.164 44.7334 189.159 44.7737 189.161 44.8166C189.164 44.8595 189.174 44.8985 189.186 44.9414C189.194 44.97 189.191 44.9999 189.203 45.0273L192.304 52.4469C192.352 52.552 192.428 52.6423 192.523 52.7083C192.631 52.7955 192.766 52.844 192.905 52.8461H197.05V71.6696C197.05 71.7034 197.065 71.732 197.07 71.7645C197.078 71.8126 197.08 71.8594 197.097 71.905C197.117 71.9518 197.148 71.9908 197.177 72.0337C197.195 72.0597 197.203 72.0883 197.225 72.1117L198.444 73.4276C198.453 73.438 198.468 73.4419 198.477 73.4523C198.52 73.4926 198.568 73.5265 198.62 73.5525C198.642 73.5642 198.66 73.5798 198.684 73.5876C198.758 73.6178 198.838 73.6341 198.919 73.6357H198.922C198.97 73.6358 199.018 73.6302 199.065 73.6188L228.389 66.9221H228.392C228.456 66.9078 228.507 66.8766 228.56 66.8454C228.582 66.8324 228.608 66.8285 228.626 66.8155C228.669 66.7856 228.7 66.7414 228.733 66.7024C228.754 66.6776 228.781 66.6607 228.797 66.6334C228.829 66.577 228.853 66.5161 228.868 66.4527C228.872 66.4345 228.884 66.4202 228.888 66.4007C228.902 66.3161 228.9 66.2295 228.881 66.1458ZM190.451 34.2203C190.534 34.2198 190.616 34.204 190.693 34.1734L190.702 34.1695C190.704 34.1692 190.706 34.1683 190.707 34.1669L202.025 29.647L202.029 29.6444C202.092 29.616 202.151 29.5783 202.202 29.5326C202.215 29.5209 202.231 29.5157 202.243 29.5053C202.271 29.4767 202.288 29.4377 202.311 29.4039C202.336 29.3687 202.366 29.3375 202.383 29.2998C202.391 29.2816 202.39 29.2608 202.396 29.2426C202.419 29.1813 202.432 29.1168 202.434 29.0515L202.435 29.045V28.4936C202.435 28.4611 202.421 28.4325 202.416 28.4013C202.408 28.3532 202.405 28.3051 202.388 28.2596C202.373 28.2193 202.347 28.1867 202.323 28.1516C202.301 28.1165 202.284 28.0801 202.254 28.0502C202.22 28.0125 202.174 27.9865 202.131 27.9592C202.106 27.9436 202.089 27.9202 202.061 27.9072L202.036 27.8955L180.534 17.7816L180.513 17.7764C180.466 17.7555 180.418 17.749 180.369 17.7412C180.335 17.736 180.301 17.723 180.267 17.723C180.225 17.7217 180.185 17.7347 180.141 17.7425C180.101 17.7503 180.059 17.7542 180.019 17.7698C180.011 17.7724 180.002 17.7711 179.994 17.775L177.647 18.8062C177.608 18.8244 177.578 18.8543 177.544 18.879C177.516 18.8998 177.483 18.9089 177.457 18.9349L161.55 34.3061L161.548 34.31C161.494 34.3645 161.45 34.4284 161.419 34.4985C161.415 34.5063 161.407 34.5128 161.405 34.5206C161.398 34.5362 161.399 34.5544 161.394 34.57C161.371 34.6339 161.357 34.701 161.354 34.769L161.353 34.7742V35.8405C161.353 36.0129 161.421 36.1783 161.543 36.3002C161.665 36.4221 161.83 36.4906 162.003 36.4906H167.296C167.417 36.4876 167.535 36.4491 167.634 36.3801C167.647 36.3723 167.663 36.3762 167.676 36.3671L179.331 27.9254L188.457 34.1084C188.47 34.1162 188.484 34.1136 188.494 34.1201C188.591 34.1826 188.704 34.2173 188.819 34.2203H190.451ZM234.824 29.7393C234.821 29.7263 234.825 29.7133 234.821 29.7016L233.648 25.3221C233.645 25.3091 233.635 25.3 233.631 25.2883C233.615 25.2465 233.595 25.2064 233.571 25.1687C233.55 25.1336 233.531 25.0959 233.504 25.066C233.493 25.0543 233.489 25.04 233.479 25.0309L230.267 21.8191C230.258 21.8087 230.244 21.8061 230.236 21.797C230.202 21.769 230.165 21.7446 230.125 21.7241C230.09 21.7012 230.052 21.6821 230.012 21.6669C229.999 21.663 229.989 21.6526 229.977 21.6487L225.596 20.4758C225.578 20.4719 225.564 20.4758 225.547 20.4732C225.507 20.4654 225.466 20.468 225.423 20.468C225.386 20.468 225.348 20.4654 225.312 20.4732C225.293 20.4758 225.277 20.4719 225.258 20.4758L220.875 21.6487C220.862 21.6526 220.852 21.663 220.84 21.6669C220.8 21.6821 220.762 21.7012 220.727 21.7241C220.688 21.7462 220.649 21.767 220.616 21.797C220.607 21.8061 220.593 21.8087 220.585 21.8191L217.372 25.0309C217.36 25.0426 217.356 25.0582 217.346 25.0699C217.32 25.0972 217.302 25.131 217.282 25.1648C217.257 25.2035 217.236 25.2449 217.22 25.2883C217.215 25.3013 217.205 25.3104 217.202 25.3221L216.029 29.7016C216.026 29.7146 216.029 29.7276 216.026 29.7393C216.018 29.7822 216.018 29.8252 216.018 29.872C216.018 29.9149 216.018 29.9565 216.026 29.9994C216.029 30.0124 216.026 30.0254 216.029 30.0384L217.202 34.4075C217.204 34.4166 217.215 34.4205 217.217 34.4296C217.246 34.5305 217.298 34.6229 217.371 34.6988L220.584 37.9067C220.593 37.9171 220.606 37.9197 220.615 37.9288C220.647 37.9561 220.684 37.9769 220.721 37.999C220.761 38.0224 220.798 38.0445 220.841 38.0588C220.854 38.0627 220.862 38.0718 220.874 38.0757L225.257 39.2525C225.312 39.2679 225.368 39.2758 225.425 39.2759H225.427C225.484 39.2758 225.541 39.2679 225.595 39.2525L229.976 38.0757C229.989 38.0718 229.997 38.0627 230.008 38.0588C230.05 38.0434 230.09 38.0233 230.128 37.999C230.166 37.9769 230.202 37.9574 230.235 37.9288C230.245 37.9197 230.258 37.9171 230.266 37.9067L233.478 34.6988C233.55 34.6237 233.602 34.5316 233.63 34.4309C233.634 34.4205 233.643 34.4166 233.645 34.4075L234.818 30.0384C234.824 30.0241 234.818 30.0111 234.821 29.9994C234.83 29.9578 234.829 29.9162 234.83 29.872C234.834 29.8277 234.832 29.783 234.824 29.7393ZM186.236 59.522C186.228 59.4372 186.203 59.3548 186.163 59.2801C186.125 59.2066 186.071 59.142 186.007 59.0903C185.978 59.0643 185.944 59.0447 185.911 59.0252C185.871 59.0025 185.828 58.9846 185.784 58.9719C185.765 58.9654 185.751 58.9511 185.728 58.9472C185.705 58.942 185.683 58.9485 185.66 58.9459C185.637 58.9433 185.619 58.9329 185.597 58.9329H184.358C184.345 58.9329 184.335 58.9394 184.324 58.9407C184.278 58.9447 184.233 58.9538 184.189 58.968C184.146 58.9797 184.107 58.9901 184.069 59.0083C184.056 59.0148 184.043 59.0148 184.033 59.0213L174.339 64.6231L166.058 53.7797C166.023 53.7342 165.978 53.703 165.934 53.6705C165.774 53.5444 165.572 53.4937 165.38 53.5444C165.295 53.566 165.216 53.6045 165.147 53.6575L165.146 53.6588L147.413 67.1744H140.381C140.209 67.1744 140.043 67.2429 139.921 67.3648C139.799 67.4867 139.731 67.6521 139.731 67.8245V71.7515L111.055 91.2863C111.038 91.298 111.029 91.3149 111.014 91.3279C110.949 91.382 110.894 91.4486 110.854 91.5238C110.814 91.599 110.79 91.6813 110.782 91.7661C110.78 91.7856 110.77 91.8025 110.77 91.8233V97.693C110.77 97.7034 110.775 97.7125 110.775 97.7216C110.776 97.7645 110.791 97.8048 110.801 97.849C110.812 97.8932 110.821 97.9335 110.839 97.9739C110.843 97.983 110.841 97.9934 110.847 98.0012C110.854 98.0168 110.871 98.022 110.88 98.0363C110.926 98.1077 110.985 98.1692 111.055 98.217C111.078 98.2339 111.098 98.2495 111.122 98.2625C111.213 98.3131 111.315 98.3408 111.419 98.3432L111.421 98.3419C111.52 98.3405 111.616 98.316 111.704 98.2703C111.711 98.2664 111.72 98.2677 111.728 98.2638L152.575 76.1882L178.266 85.8353L178.291 85.8444C178.364 85.8721 178.441 85.8862 178.519 85.886H180.291C180.372 85.8851 180.452 85.8692 180.527 85.8392C180.553 85.8288 180.574 85.8119 180.599 85.7989C180.644 85.7755 180.687 85.7471 180.726 85.7144C180.75 85.6936 180.766 85.6702 180.786 85.6468C180.817 85.6097 180.844 85.5697 180.867 85.5271C180.881 85.4982 180.893 85.4676 180.902 85.4361C180.909 85.4127 180.925 85.3932 180.929 85.3685L186.234 59.7144C186.239 59.691 186.233 59.6702 186.234 59.6468C186.237 59.6234 186.249 59.6052 186.249 59.5818C186.247 59.5623 186.238 59.5428 186.236 59.522Z" fill="url(#paint0_linear_2_6)"/>
<path d="M17.7234 193.985L31.2836 117.048H53.4031L52.0567 124.742H39.5544L35.1305 149.746H45.7094L44.363 157.44H33.7841L29.0717 184.368H41.574L39.8429 193.985H17.7234ZM55.4708 193.985L58.4521 117.048H68.5502L64.3186 173.789H65.2803L81.0525 117.048H91.1505L67.0114 193.985H55.4708ZM91.6795 153.497C96.3919 126.665 98.8924 116.086 113.318 116.086C127.744 116.086 126.398 126.665 121.685 153.497C116.299 184.272 113.799 194.947 99.3732 194.947C84.9475 194.947 86.2939 184.272 91.6795 153.497ZM101.104 185.33C106.49 185.33 107.163 181.291 112.068 153.497C116.492 128.493 117.357 123.78 111.972 123.78C106.586 123.78 105.721 128.493 101.297 153.497C96.3919 181.291 95.7187 185.33 101.104 185.33ZM124.426 193.985L137.986 117.048H147.603L135.774 184.368H148.277L146.545 193.985H124.426ZM160.154 153.497L166.597 117.048H176.214L169.771 153.497C164.866 181.291 164.193 185.33 169.002 185.33C173.81 185.33 174.483 181.291 179.388 153.497L185.832 117.048H195.449L189.005 153.497C183.62 184.272 181.696 194.947 167.271 194.947C152.845 194.947 154.768 184.272 160.154 153.497ZM197.997 193.985L210.019 125.704H200.402L201.94 117.048H230.792L229.253 125.704H219.636L207.615 193.985H197.997ZM224.204 193.985L237.764 117.048H247.382L233.821 193.985H224.204ZM250.796 153.497C255.508 126.665 258.009 116.086 272.434 116.086C286.86 116.086 285.514 126.665 280.801 153.497C275.416 184.272 272.915 194.947 258.489 194.947C244.064 194.947 245.41 184.272 250.796 153.497ZM260.221 185.33C265.606 185.33 266.279 181.291 271.184 153.497C275.608 128.493 276.474 123.78 271.088 123.78C265.702 123.78 264.837 128.493 260.413 153.497C255.508 181.291 254.835 185.33 260.221 185.33ZM283.542 193.985L297.102 117.048H305.758L310.086 164.172V163.211L318.26 117.048H327.877L314.317 193.985H305.662L300.565 151.67L300.468 152.632L293.159 193.985H283.542Z" fill="url(#paint1_linear_2_6)"/>
</g>
<defs>
<linearGradient id="paint0_linear_2_6" x1="110.77" y1="17.7229" x2="234.832" y2="17.7229" gradientUnits="userSpaceOnUse">
<stop stop-color="#FBB040"/>
<stop offset="1" stop-color="#F9ED32"/>
</linearGradient>
<linearGradient id="paint1_linear_2_6" x1="17.7234" y1="116.086" x2="327.877" y2="116.086" gradientUnits="userSpaceOnUse">
<stop stop-color="#FBB040"/>
<stop offset="1" stop-color="#F9ED32"/>
</linearGradient>
<clipPath id="clip0_2_6">
<rect width="345.6" height="212.677" fill="white"/>
</clipPath>
</defs>
</svg>
