<svg width="355" height="118" viewBox="0 0 355 118" fill="none" xmlns="http://www.w3.org/2000/svg">
<g clip-path="url(#clip0_1_16)">
<mask id="mask0_1_16" style="mask-type:luminance" maskUnits="userSpaceOnUse" x="0" y="0" width="355" height="118">
<path d="M0.5 0.5H354.1V117.476H0.5V0.5Z" fill="white" stroke="white"/>
</mask>
<g mask="url(#mask0_1_16)">
<mask id="path-2-inside-1_1_16" fill="white">
<path d="M6.40878 30.3942C7.04165 30.3942 7.55599 30.5921 7.95179 30.9879C8.34759 31.3837 8.54515 31.898 8.54447 32.5309V94.4783C8.54447 96.2979 7.93153 97.8209 6.70563 99.0475C5.47973 100.274 3.95664 100.887 2.13637 100.886H14.9526C15.5861 100.886 16.1005 100.689 16.4956 100.294C16.8907 99.8986 17.0886 99.3842 17.0893 98.7507V32.5309C17.0893 31.898 17.2872 31.3837 17.683 30.9879C18.0788 30.5921 18.5931 30.3942 19.226 30.3942H23.4974C24.1309 30.3942 24.6453 30.5921 25.0404 30.9879C25.4355 31.3837 25.6334 31.898 25.6341 32.5309V107.295C25.6341 107.928 25.4362 108.443 25.0404 108.838C24.6446 109.234 24.1303 109.432 23.4974 109.431H6.40878C4.58918 109.431 3.06609 108.818 1.83952 107.592C0.612946 106.366 -3.48144e-06 104.843 0.000671944 103.023V32.5309C0.000671944 31.898 0.198234 31.3837 0.593358 30.9879C0.988483 30.5921 1.50282 30.3942 2.13637 30.3942H6.40878ZM57.6756 107.295C57.6756 107.928 57.4781 108.443 57.083 108.838C56.6878 109.234 56.1735 109.432 55.5399 109.431H51.2675C50.6347 109.431 50.1203 109.234 49.7245 108.838C49.3287 108.443 49.1312 107.929 49.1318 107.295V41.0747C49.1318 40.4418 48.9339 39.9278 48.5381 39.5327C48.1423 39.1376 47.628 38.9397 46.9951 38.939H34.1789C35.9985 38.939 37.5216 39.5519 38.7482 40.7778C39.9748 42.0037 40.5877 43.5268 40.587 45.3471V107.295C40.587 107.928 40.3891 108.443 39.9933 108.838C39.5975 109.234 39.0832 109.432 38.4503 109.431H34.1789C33.546 109.431 33.0317 109.234 32.6359 108.838C32.2401 108.443 32.0422 107.929 32.0422 107.295V32.5309C32.0422 31.898 32.2401 31.3837 32.6359 30.9879C33.0317 30.5921 33.546 30.3942 34.1789 30.3942H51.2675C53.0871 30.3942 54.6102 31.0075 55.8368 32.234C57.0634 33.4606 57.6763 34.9837 57.6756 36.8033V107.295ZM83.3111 30.3942C85.1307 30.3942 86.6538 31.0075 87.8804 32.234C89.1069 33.4606 89.7199 34.9837 89.7192 36.8033V103.022C89.7192 104.842 89.1059 106.365 87.8793 107.591C86.6528 108.817 85.1297 109.431 83.3101 109.431H74.7663C76.5859 109.431 78.109 110.044 79.3355 111.271C80.5621 112.498 81.1751 114.021 81.1744 115.84C81.1744 116.473 80.9765 116.987 80.5807 117.382C80.1849 117.777 79.6709 117.975 79.0387 117.976H74.7663C74.1334 117.976 73.6191 117.778 73.2233 117.382C72.8275 116.986 72.6296 116.472 72.6296 115.84V111.568C72.6296 110.935 72.432 110.421 72.0369 110.025C71.6418 109.629 71.1274 109.431 70.4939 109.431C68.6743 109.431 67.1512 108.818 65.9246 107.592C64.698 106.366 64.0851 104.843 64.0858 103.023V36.8023C64.0858 34.9827 64.6987 33.4596 65.9246 32.233C67.1505 31.0064 68.6733 30.3935 70.4929 30.3942H83.3091H83.3111ZM81.1734 41.0747C81.1734 40.4418 80.9755 39.9278 80.5797 39.5327C80.1839 39.1376 79.6699 38.9397 79.0377 38.939H66.2215C68.0404 38.939 69.5631 39.5519 70.7897 40.7778C72.0163 42.0037 72.6292 43.5268 72.6286 45.3471V98.7507C72.6286 99.3835 72.8265 99.8979 73.2223 100.294C73.6181 100.689 74.1324 100.887 74.7653 100.886H79.0377C79.6706 100.886 80.1846 100.689 80.5797 100.294C80.9748 99.8986 81.1727 99.3842 81.1734 98.7507V41.0747ZM102.534 30.3942C103.168 30.3942 103.682 30.5921 104.077 30.9879C104.473 31.3837 104.67 31.898 104.671 32.5309V94.4783C104.671 96.2979 104.058 97.8209 102.831 99.0475C101.605 100.274 100.082 100.887 98.262 100.886H111.079C111.712 100.886 112.226 100.689 112.622 100.294C113.018 99.8986 113.216 99.3842 113.216 98.7507V32.5309C113.216 31.898 113.413 31.3837 113.809 30.9879C114.204 30.5921 114.718 30.3942 115.352 30.3942H119.624C120.257 30.3942 120.771 30.5921 121.167 30.9879C121.563 31.3837 121.76 31.898 121.76 32.5309V107.295C121.76 107.928 121.562 108.443 121.167 108.838C120.772 109.234 120.258 109.432 119.624 109.431H102.534C100.715 109.431 99.1917 108.818 97.9651 107.592C96.7386 106.366 96.1256 104.843 96.1263 103.023V32.5309C96.1263 31.898 96.3242 31.3837 96.72 30.9879C97.1158 30.5921 97.6301 30.3942 98.263 30.3942H102.534ZM130.305 109.431C129.672 109.431 129.157 109.234 128.762 108.838C128.366 108.443 128.168 107.929 128.169 107.295V32.5309C128.169 31.898 128.366 31.3837 128.762 30.9879C129.157 30.5921 129.671 30.3942 130.305 30.3942H134.577C135.21 30.3942 135.724 30.5921 136.12 30.9879C136.516 31.3837 136.713 31.898 136.713 32.5309V107.295C136.713 107.928 136.515 108.443 136.12 108.838C135.725 109.234 135.21 109.432 134.577 109.431H130.305ZM149.53 109.431C147.71 109.431 146.187 108.818 144.961 107.592C143.734 106.366 143.121 104.843 143.122 103.023V36.8023C143.122 34.9827 143.735 33.4596 144.961 32.233C146.187 31.0064 147.71 30.3935 149.53 30.3942H166.618C167.252 30.3942 167.766 30.5921 168.161 30.9879C168.557 31.3837 168.755 31.898 168.755 32.5309V36.8023C168.755 37.4358 168.557 37.9502 168.161 38.3453C167.766 38.7404 167.251 38.9383 166.618 38.939H145.257C147.077 38.939 148.6 39.5519 149.827 40.7778C151.053 42.0037 151.666 43.5268 151.666 45.3471V68.8448C151.666 69.4777 151.863 69.992 152.259 70.3878C152.655 70.7836 153.169 70.9812 153.802 70.9805H158.075C158.708 70.9805 159.222 71.1784 159.617 71.5742C160.012 71.97 160.21 72.4844 160.21 73.1172V77.3896C160.21 78.0225 160.012 78.5365 159.617 78.9316C159.221 79.3268 158.707 79.5247 158.075 79.5253H145.258C147.077 79.5253 148.6 80.1386 149.827 81.3652C151.053 82.5918 151.666 84.1149 151.666 85.9345V98.7507C151.666 99.3835 151.863 99.8979 152.259 100.294C152.655 100.689 153.169 100.887 153.802 100.886H166.618C167.252 100.886 167.766 101.084 168.161 101.48C168.557 101.876 168.755 102.39 168.755 103.023V107.295C168.755 107.928 168.557 108.443 168.161 108.838C167.766 109.234 167.251 109.432 166.618 109.431H149.53ZM185.844 109.431C185.211 109.431 184.697 109.234 184.302 108.838C183.907 108.443 183.709 107.929 183.708 107.295V41.0747C183.708 40.4418 183.51 39.9278 183.114 39.5327C182.719 39.1376 182.205 38.9397 181.572 38.939H177.3C176.667 38.939 176.153 38.7411 175.757 38.3453C175.361 37.9495 175.163 37.4352 175.163 36.8023V32.5319C175.163 31.899 175.361 31.3847 175.757 30.9889C176.153 30.5931 176.667 30.3948 177.3 30.3942H198.661C199.294 30.3942 199.808 30.5921 200.204 30.9879C200.6 31.3837 200.797 31.898 200.797 32.5309V36.8023C200.797 37.4358 200.599 37.9502 200.204 38.3453C199.809 38.7404 199.295 38.9383 198.661 38.939H185.845C187.664 38.939 189.187 39.5519 190.414 40.7778C191.641 42.0037 192.254 43.5268 192.253 45.3471V107.295C192.253 107.928 192.055 108.443 191.659 108.838C191.263 109.234 190.749 109.432 190.116 109.431H185.844ZM232.839 36.8023C232.839 34.9827 233.453 33.4596 234.679 32.233C235.906 31.0064 237.429 30.3935 239.248 30.3942H256.337C256.97 30.3942 257.484 30.5921 257.879 30.9879C258.274 31.3837 258.472 31.898 258.473 32.5309V36.8023C258.473 37.4358 258.275 37.9502 257.879 38.3453C257.483 38.7404 256.969 38.9383 256.337 38.939H234.975C236.795 38.939 238.318 39.5519 239.544 40.7778C240.771 42.0037 241.384 43.5268 241.384 45.3471V68.8448C241.384 69.4777 241.582 69.992 241.977 70.3878C242.372 70.7836 242.886 70.9812 243.52 70.9805H247.792C248.425 70.9805 248.939 71.1784 249.335 71.5742C249.731 71.97 249.929 72.4844 249.928 73.1172V77.3896C249.928 78.0225 249.73 78.5365 249.335 78.9316C248.94 79.3268 248.426 79.5247 247.792 79.5253H234.976C236.795 79.5253 238.318 80.1386 239.545 81.3652C240.773 82.5918 241.385 84.1149 241.384 85.9345V107.295C241.384 107.928 241.186 108.443 240.79 108.838C240.395 109.234 239.88 109.432 239.247 109.431H234.975C234.342 109.431 233.828 109.234 233.433 108.838C233.038 108.443 232.84 107.929 232.839 107.295V36.8023ZM271.29 109.431C269.47 109.431 267.947 108.818 266.721 107.592C265.494 106.366 264.881 104.843 264.881 103.023V36.8023C264.881 34.9827 265.494 33.4596 266.721 32.233C267.947 31.0064 269.47 30.3935 271.29 30.3942H288.379C289.011 30.3942 289.526 30.5921 289.922 30.9879C290.317 31.3837 290.515 31.898 290.515 32.5309V36.8023C290.515 37.4358 290.317 37.9502 289.922 38.3453C289.526 38.7404 289.011 38.9383 288.379 38.939H267.018C268.837 38.939 270.36 39.5519 271.587 40.7778C272.813 42.0037 273.426 43.5268 273.426 45.3471V68.8448C273.426 69.4777 273.624 69.992 274.019 70.3878C274.415 70.7836 274.929 70.9812 275.562 70.9805H279.834C280.467 70.9805 280.982 71.1784 281.377 71.5742C281.772 71.97 281.97 72.4844 281.97 73.1172V77.3896C281.97 78.0225 281.773 78.5365 281.377 78.9316C280.981 79.3268 280.467 79.5247 279.834 79.5253H267.018C268.837 79.5253 270.36 80.1386 271.587 81.3652C272.813 82.5918 273.426 84.1149 273.426 85.9345V98.7507C273.426 99.3835 273.624 99.8979 274.019 100.294C274.415 100.689 274.929 100.887 275.562 100.886H288.379C289.011 100.886 289.526 101.084 289.922 101.48C290.317 101.876 290.515 102.39 290.515 103.023V107.295C290.515 107.928 290.317 108.443 289.922 108.838C289.526 109.234 289.011 109.432 288.379 109.431H271.29ZM303.331 109.431C301.512 109.431 299.989 108.818 298.762 107.592C297.536 106.366 296.923 104.843 296.923 103.023V36.8023C296.923 34.9827 297.537 33.4596 298.763 32.233C299.99 31.0064 301.513 30.3935 303.333 30.3942H320.421C321.054 30.3942 321.568 30.5921 321.963 30.9879C322.358 31.3837 322.556 31.898 322.557 32.5309V36.8023C322.557 37.4358 322.359 37.9502 321.963 38.3453C321.567 38.7404 321.053 38.9383 320.421 38.939H299.059C300.879 38.939 302.402 39.5519 303.628 40.7778C304.855 42.0037 305.468 43.5268 305.468 45.3471V68.8448C305.468 69.4777 305.666 69.992 306.061 70.3878C306.456 70.7836 306.97 70.9812 307.604 70.9805H311.876C312.509 70.9805 313.024 71.1784 313.419 71.5742C313.815 71.97 314.013 72.4844 314.012 73.1172V77.3896C314.012 78.0225 313.814 78.5365 313.419 78.9316C313.024 79.3268 312.51 79.5247 311.876 79.5253H299.06C300.879 79.5253 302.402 80.1386 303.629 81.3652C304.857 82.5918 305.47 84.1149 305.468 85.9345V98.7507C305.468 99.3835 305.666 99.8979 306.061 100.294C306.456 100.689 306.97 100.887 307.604 100.886H320.42C321.054 100.886 321.568 101.084 321.963 101.48C322.358 101.876 322.556 102.39 322.557 103.023V107.295C322.557 107.928 322.359 108.443 321.963 108.838C321.567 109.234 321.053 109.432 320.421 109.431H303.331ZM339.646 109.431C339.014 109.431 338.499 109.234 338.103 108.838C337.708 108.443 337.51 107.929 337.51 107.295V41.0747C337.51 40.4418 337.312 39.9278 336.916 39.5327C336.52 39.1376 336.006 38.9397 335.374 38.939H331.102C330.469 38.939 329.954 38.7411 329.559 38.3453C329.163 37.9495 328.965 37.4352 328.965 36.8023V32.5319C328.965 31.899 329.163 31.3847 329.559 30.9889C329.954 30.5931 330.469 30.3952 331.102 30.3952H352.463C353.096 30.3952 353.61 30.5931 354.006 30.9889C354.401 31.3847 354.599 31.899 354.599 32.5319V36.8033C354.599 37.4368 354.401 37.9512 354.006 38.3463C353.61 38.7414 353.096 38.9393 352.463 38.94H339.646C341.466 38.94 342.989 39.553 344.216 40.7788C345.442 42.0047 346.055 43.5278 346.055 45.3481V107.296C346.055 107.929 345.857 108.444 345.461 108.84C345.065 109.235 344.551 109.433 343.918 109.432L339.646 109.431Z"/>
</mask>
<path d="M6.40878 30.3942C7.04165 30.3942 7.55599 30.5921 7.95179 30.9879C8.34759 31.3837 8.54515 31.898 8.54447 32.5309V94.4783C8.54447 96.2979 7.93153 97.8209 6.70563 99.0475C5.47973 100.274 3.95664 100.887 2.13637 100.886H14.9526C15.5861 100.886 16.1005 100.689 16.4956 100.294C16.8907 99.8986 17.0886 99.3842 17.0893 98.7507V32.5309C17.0893 31.898 17.2872 31.3837 17.683 30.9879C18.0788 30.5921 18.5931 30.3942 19.226 30.3942H23.4974C24.1309 30.3942 24.6453 30.5921 25.0404 30.9879C25.4355 31.3837 25.6334 31.898 25.6341 32.5309V107.295C25.6341 107.928 25.4362 108.443 25.0404 108.838C24.6446 109.234 24.1303 109.432 23.4974 109.431H6.40878C4.58918 109.431 3.06609 108.818 1.83952 107.592C0.612946 106.366 -3.48144e-06 104.843 0.000671944 103.023V32.5309C0.000671944 31.898 0.198234 31.3837 0.593358 30.9879C0.988483 30.5921 1.50282 30.3942 2.13637 30.3942H6.40878ZM57.6756 107.295C57.6756 107.928 57.4781 108.443 57.083 108.838C56.6878 109.234 56.1735 109.432 55.5399 109.431H51.2675C50.6347 109.431 50.1203 109.234 49.7245 108.838C49.3287 108.443 49.1312 107.929 49.1318 107.295V41.0747C49.1318 40.4418 48.9339 39.9278 48.5381 39.5327C48.1423 39.1376 47.628 38.9397 46.9951 38.939H34.1789C35.9985 38.939 37.5216 39.5519 38.7482 40.7778C39.9748 42.0037 40.5877 43.5268 40.587 45.3471V107.295C40.587 107.928 40.3891 108.443 39.9933 108.838C39.5975 109.234 39.0832 109.432 38.4503 109.431H34.1789C33.546 109.431 33.0317 109.234 32.6359 108.838C32.2401 108.443 32.0422 107.929 32.0422 107.295V32.5309C32.0422 31.898 32.2401 31.3837 32.6359 30.9879C33.0317 30.5921 33.546 30.3942 34.1789 30.3942H51.2675C53.0871 30.3942 54.6102 31.0075 55.8368 32.234C57.0634 33.4606 57.6763 34.9837 57.6756 36.8033V107.295ZM83.3111 30.3942C85.1307 30.3942 86.6538 31.0075 87.8804 32.234C89.1069 33.4606 89.7199 34.9837 89.7192 36.8033V103.022C89.7192 104.842 89.1059 106.365 87.8793 107.591C86.6528 108.817 85.1297 109.431 83.3101 109.431H74.7663C76.5859 109.431 78.109 110.044 79.3355 111.271C80.5621 112.498 81.1751 114.021 81.1744 115.84C81.1744 116.473 80.9765 116.987 80.5807 117.382C80.1849 117.777 79.6709 117.975 79.0387 117.976H74.7663C74.1334 117.976 73.6191 117.778 73.2233 117.382C72.8275 116.986 72.6296 116.472 72.6296 115.84V111.568C72.6296 110.935 72.432 110.421 72.0369 110.025C71.6418 109.629 71.1274 109.431 70.4939 109.431C68.6743 109.431 67.1512 108.818 65.9246 107.592C64.698 106.366 64.0851 104.843 64.0858 103.023V36.8023C64.0858 34.9827 64.6987 33.4596 65.9246 32.233C67.1505 31.0064 68.6733 30.3935 70.4929 30.3942H83.3091H83.3111ZM81.1734 41.0747C81.1734 40.4418 80.9755 39.9278 80.5797 39.5327C80.1839 39.1376 79.6699 38.9397 79.0377 38.939H66.2215C68.0404 38.939 69.5631 39.5519 70.7897 40.7778C72.0163 42.0037 72.6292 43.5268 72.6286 45.3471V98.7507C72.6286 99.3835 72.8265 99.8979 73.2223 100.294C73.6181 100.689 74.1324 100.887 74.7653 100.886H79.0377C79.6706 100.886 80.1846 100.689 80.5797 100.294C80.9748 99.8986 81.1727 99.3842 81.1734 98.7507V41.0747ZM102.534 30.3942C103.168 30.3942 103.682 30.5921 104.077 30.9879C104.473 31.3837 104.67 31.898 104.671 32.5309V94.4783C104.671 96.2979 104.058 97.8209 102.831 99.0475C101.605 100.274 100.082 100.887 98.262 100.886H111.079C111.712 100.886 112.226 100.689 112.622 100.294C113.018 99.8986 113.216 99.3842 113.216 98.7507V32.5309C113.216 31.898 113.413 31.3837 113.809 30.9879C114.204 30.5921 114.718 30.3942 115.352 30.3942H119.624C120.257 30.3942 120.771 30.5921 121.167 30.9879C121.563 31.3837 121.76 31.898 121.76 32.5309V107.295C121.76 107.928 121.562 108.443 121.167 108.838C120.772 109.234 120.258 109.432 119.624 109.431H102.534C100.715 109.431 99.1917 108.818 97.9651 107.592C96.7386 106.366 96.1256 104.843 96.1263 103.023V32.5309C96.1263 31.898 96.3242 31.3837 96.72 30.9879C97.1158 30.5921 97.6301 30.3942 98.263 30.3942H102.534ZM130.305 109.431C129.672 109.431 129.157 109.234 128.762 108.838C128.366 108.443 128.168 107.929 128.169 107.295V32.5309C128.169 31.898 128.366 31.3837 128.762 30.9879C129.157 30.5921 129.671 30.3942 130.305 30.3942H134.577C135.21 30.3942 135.724 30.5921 136.12 30.9879C136.516 31.3837 136.713 31.898 136.713 32.5309V107.295C136.713 107.928 136.515 108.443 136.12 108.838C135.725 109.234 135.21 109.432 134.577 109.431H130.305ZM149.53 109.431C147.71 109.431 146.187 108.818 144.961 107.592C143.734 106.366 143.121 104.843 143.122 103.023V36.8023C143.122 34.9827 143.735 33.4596 144.961 32.233C146.187 31.0064 147.71 30.3935 149.53 30.3942H166.618C167.252 30.3942 167.766 30.5921 168.161 30.9879C168.557 31.3837 168.755 31.898 168.755 32.5309V36.8023C168.755 37.4358 168.557 37.9502 168.161 38.3453C167.766 38.7404 167.251 38.9383 166.618 38.939H145.257C147.077 38.939 148.6 39.5519 149.827 40.7778C151.053 42.0037 151.666 43.5268 151.666 45.3471V68.8448C151.666 69.4777 151.863 69.992 152.259 70.3878C152.655 70.7836 153.169 70.9812 153.802 70.9805H158.075C158.708 70.9805 159.222 71.1784 159.617 71.5742C160.012 71.97 160.21 72.4844 160.21 73.1172V77.3896C160.21 78.0225 160.012 78.5365 159.617 78.9316C159.221 79.3268 158.707 79.5247 158.075 79.5253H145.258C147.077 79.5253 148.6 80.1386 149.827 81.3652C151.053 82.5918 151.666 84.1149 151.666 85.9345V98.7507C151.666 99.3835 151.863 99.8979 152.259 100.294C152.655 100.689 153.169 100.887 153.802 100.886H166.618C167.252 100.886 167.766 101.084 168.161 101.48C168.557 101.876 168.755 102.39 168.755 103.023V107.295C168.755 107.928 168.557 108.443 168.161 108.838C167.766 109.234 167.251 109.432 166.618 109.431H149.53ZM185.844 109.431C185.211 109.431 184.697 109.234 184.302 108.838C183.907 108.443 183.709 107.929 183.708 107.295V41.0747C183.708 40.4418 183.51 39.9278 183.114 39.5327C182.719 39.1376 182.205 38.9397 181.572 38.939H177.3C176.667 38.939 176.153 38.7411 175.757 38.3453C175.361 37.9495 175.163 37.4352 175.163 36.8023V32.5319C175.163 31.899 175.361 31.3847 175.757 30.9889C176.153 30.5931 176.667 30.3948 177.3 30.3942H198.661C199.294 30.3942 199.808 30.5921 200.204 30.9879C200.6 31.3837 200.797 31.898 200.797 32.5309V36.8023C200.797 37.4358 200.599 37.9502 200.204 38.3453C199.809 38.7404 199.295 38.9383 198.661 38.939H185.845C187.664 38.939 189.187 39.5519 190.414 40.7778C191.641 42.0037 192.254 43.5268 192.253 45.3471V107.295C192.253 107.928 192.055 108.443 191.659 108.838C191.263 109.234 190.749 109.432 190.116 109.431H185.844ZM232.839 36.8023C232.839 34.9827 233.453 33.4596 234.679 32.233C235.906 31.0064 237.429 30.3935 239.248 30.3942H256.337C256.97 30.3942 257.484 30.5921 257.879 30.9879C258.274 31.3837 258.472 31.898 258.473 32.5309V36.8023C258.473 37.4358 258.275 37.9502 257.879 38.3453C257.483 38.7404 256.969 38.9383 256.337 38.939H234.975C236.795 38.939 238.318 39.5519 239.544 40.7778C240.771 42.0037 241.384 43.5268 241.384 45.3471V68.8448C241.384 69.4777 241.582 69.992 241.977 70.3878C242.372 70.7836 242.886 70.9812 243.52 70.9805H247.792C248.425 70.9805 248.939 71.1784 249.335 71.5742C249.731 71.97 249.929 72.4844 249.928 73.1172V77.3896C249.928 78.0225 249.73 78.5365 249.335 78.9316C248.94 79.3268 248.426 79.5247 247.792 79.5253H234.976C236.795 79.5253 238.318 80.1386 239.545 81.3652C240.773 82.5918 241.385 84.1149 241.384 85.9345V107.295C241.384 107.928 241.186 108.443 240.79 108.838C240.395 109.234 239.88 109.432 239.247 109.431H234.975C234.342 109.431 233.828 109.234 233.433 108.838C233.038 108.443 232.84 107.929 232.839 107.295V36.8023ZM271.29 109.431C269.47 109.431 267.947 108.818 266.721 107.592C265.494 106.366 264.881 104.843 264.881 103.023V36.8023C264.881 34.9827 265.494 33.4596 266.721 32.233C267.947 31.0064 269.47 30.3935 271.29 30.3942H288.379C289.011 30.3942 289.526 30.5921 289.922 30.9879C290.317 31.3837 290.515 31.898 290.515 32.5309V36.8023C290.515 37.4358 290.317 37.9502 289.922 38.3453C289.526 38.7404 289.011 38.9383 288.379 38.939H267.018C268.837 38.939 270.36 39.5519 271.587 40.7778C272.813 42.0037 273.426 43.5268 273.426 45.3471V68.8448C273.426 69.4777 273.624 69.992 274.019 70.3878C274.415 70.7836 274.929 70.9812 275.562 70.9805H279.834C280.467 70.9805 280.982 71.1784 281.377 71.5742C281.772 71.97 281.97 72.4844 281.97 73.1172V77.3896C281.97 78.0225 281.773 78.5365 281.377 78.9316C280.981 79.3268 280.467 79.5247 279.834 79.5253H267.018C268.837 79.5253 270.36 80.1386 271.587 81.3652C272.813 82.5918 273.426 84.1149 273.426 85.9345V98.7507C273.426 99.3835 273.624 99.8979 274.019 100.294C274.415 100.689 274.929 100.887 275.562 100.886H288.379C289.011 100.886 289.526 101.084 289.922 101.48C290.317 101.876 290.515 102.39 290.515 103.023V107.295C290.515 107.928 290.317 108.443 289.922 108.838C289.526 109.234 289.011 109.432 288.379 109.431H271.29ZM303.331 109.431C301.512 109.431 299.989 108.818 298.762 107.592C297.536 106.366 296.923 104.843 296.923 103.023V36.8023C296.923 34.9827 297.537 33.4596 298.763 32.233C299.99 31.0064 301.513 30.3935 303.333 30.3942H320.421C321.054 30.3942 321.568 30.5921 321.963 30.9879C322.358 31.3837 322.556 31.898 322.557 32.5309V36.8023C322.557 37.4358 322.359 37.9502 321.963 38.3453C321.567 38.7404 321.053 38.9383 320.421 38.939H299.059C300.879 38.939 302.402 39.5519 303.628 40.7778C304.855 42.0037 305.468 43.5268 305.468 45.3471V68.8448C305.468 69.4777 305.666 69.992 306.061 70.3878C306.456 70.7836 306.97 70.9812 307.604 70.9805H311.876C312.509 70.9805 313.024 71.1784 313.419 71.5742C313.815 71.97 314.013 72.4844 314.012 73.1172V77.3896C314.012 78.0225 313.814 78.5365 313.419 78.9316C313.024 79.3268 312.51 79.5247 311.876 79.5253H299.06C300.879 79.5253 302.402 80.1386 303.629 81.3652C304.857 82.5918 305.47 84.1149 305.468 85.9345V98.7507C305.468 99.3835 305.666 99.8979 306.061 100.294C306.456 100.689 306.97 100.887 307.604 100.886H320.42C321.054 100.886 321.568 101.084 321.963 101.48C322.358 101.876 322.556 102.39 322.557 103.023V107.295C322.557 107.928 322.359 108.443 321.963 108.838C321.567 109.234 321.053 109.432 320.421 109.431H303.331ZM339.646 109.431C339.014 109.431 338.499 109.234 338.103 108.838C337.708 108.443 337.51 107.929 337.51 107.295V41.0747C337.51 40.4418 337.312 39.9278 336.916 39.5327C336.52 39.1376 336.006 38.9397 335.374 38.939H331.102C330.469 38.939 329.954 38.7411 329.559 38.3453C329.163 37.9495 328.965 37.4352 328.965 36.8023V32.5319C328.965 31.899 329.163 31.3847 329.559 30.9889C329.954 30.5931 330.469 30.3952 331.102 30.3952H352.463C353.096 30.3952 353.61 30.5931 354.006 30.9889C354.401 31.3847 354.599 31.899 354.599 32.5319V36.8033C354.599 37.4368 354.401 37.9512 354.006 38.3463C353.61 38.7414 353.096 38.9393 352.463 38.94H339.646C341.466 38.94 342.989 39.553 344.216 40.7788C345.442 42.0047 346.055 43.5278 346.055 45.3481V107.296C346.055 107.929 345.857 108.444 345.461 108.84C345.065 109.235 344.551 109.433 343.918 109.432L339.646 109.431Z" fill="#9DFF00" stroke="black" stroke-width="2" mask="url(#path-2-inside-1_1_16)"/>
</g>
</g>
<defs>
<clipPath id="clip0_1_16">
<rect width="355" height="118" fill="white"/>
</clipPath>
</defs>
</svg>
