<svg width="330" height="229" viewBox="0 0 330 229" fill="none" xmlns="http://www.w3.org/2000/svg">
<g clip-path="url(#clip0_2_12)">
<path d="M225.703 0H230.598L165.919 164.738L98.8284 0H103.77L148.822 110.673C159.246 108.392 170.038 108.376 180.468 110.626C181.017 110.743 181.543 110.9 182.092 111.018L225.703 0ZM165.825 152.431L180.4 115.317C180.102 115.251 179.804 115.18 179.486 115.113C169.969 113.043 160.123 112.996 150.586 114.976L165.825 152.431ZM32.7452 184.774C32.9617 184.219 33.3005 184.034 33.7946 184.034H35.742C36.4216 184.034 36.7303 184.466 36.4828 185.084L20.5394 226.549C20.354 227.044 19.953 227.29 19.4579 227.29H17.1717C16.6776 227.29 16.2145 227.044 16.0291 226.549L0.0847588 185.084C-0.161842 184.466 0.146879 184.034 0.826442 184.034H2.77383C3.26797 184.034 3.60776 184.219 3.82424 184.774L18.2842 222.749L32.7452 184.774ZM84.3901 226.24C84.6376 226.858 84.3289 227.29 83.6493 227.29H81.7029C81.2078 227.29 80.868 227.105 80.6525 226.549L77.0984 217.187H55.2846L51.7315 226.549C51.515 227.105 51.1753 227.29 50.6811 227.29H48.7347C48.0542 227.29 47.7464 226.857 47.993 226.24L63.9364 184.774C64.1218 184.28 64.5858 184.034 65.079 184.034H67.3662C67.8603 184.034 68.2622 184.28 68.4476 184.774L84.3901 226.24ZM56.6748 213.603H75.7082L66.1925 188.576L56.6748 213.603ZM128.961 184.034C129.517 184.034 129.888 184.403 129.888 184.96V226.364C129.888 226.827 129.61 227.167 129.208 227.259V227.29H125.964C125.47 227.29 125.099 227.105 124.851 226.673L102.606 189.317V226.363C102.606 226.919 102.235 227.29 101.678 227.29H99.6699C99.1136 227.29 98.7428 226.919 98.7428 226.363V184.96C98.7428 184.466 99.0214 184.126 99.4534 184.064V184.034H102.667C103.161 184.034 103.533 184.219 103.779 184.651L126.026 221.945V184.96C126.026 184.404 126.397 184.034 126.953 184.034H128.961ZM180.639 226.24C180.885 226.858 180.576 227.29 179.897 227.29H177.95C177.455 227.29 177.116 227.105 176.899 226.549L173.346 217.187H151.532L147.979 226.549C147.763 227.105 147.423 227.29 146.929 227.29H144.982C144.302 227.29 143.994 226.857 144.241 226.24L160.184 184.774C160.369 184.28 160.833 184.034 161.327 184.034H163.614C164.108 184.034 164.51 184.28 164.695 184.774L180.639 226.24ZM152.922 213.603H171.956L162.44 188.576L152.922 213.603ZM224.962 184.034C225.517 184.034 225.889 184.403 225.889 184.96V186.752C225.889 187.308 225.518 187.679 224.962 187.679H211.212V226.363C211.212 226.919 210.841 227.29 210.285 227.29H208.277C207.72 227.29 207.35 226.919 207.35 226.363V187.679H193.6C193.044 187.679 192.673 187.308 192.673 186.752V184.96C192.673 184.404 193.044 184.034 193.6 184.034H224.962ZM270.737 184.034C271.292 184.034 271.664 184.403 271.664 184.96V186.752C271.664 187.308 271.293 187.679 270.737 187.679H256.988V226.363C256.988 226.919 256.617 227.29 256.061 227.29H254.052C253.497 227.29 253.125 226.919 253.125 226.363V187.679H239.376C238.819 187.679 238.448 187.308 238.448 186.752V184.96C238.448 184.404 238.819 184.034 239.376 184.034H270.737ZM307.398 228.094C295.162 228.094 285.305 218.206 285.305 205.847C285.305 193.426 295.162 183.538 307.398 183.538C319.571 183.538 329.428 193.426 329.428 205.847C329.428 218.206 319.571 228.094 307.398 228.094ZM307.398 224.541C317.625 224.541 325.72 216.26 325.72 205.847C325.72 195.372 317.625 187.092 307.398 187.092C297.108 187.092 289.013 195.372 289.013 205.847C289.013 216.26 297.108 224.54 307.398 224.54V224.541Z" fill="#111111"/>
</g>
<defs>
<clipPath id="clip0_2_12">
<rect width="329.428" height="228.094" fill="white"/>
</clipPath>
</defs>
</svg>
